<?xml version="1.0" encoding="us-ascii" standalone="no"?><svg xmlns="http://www.w3.org/2000/svg" xmlns:xlink="http://www.w3.org/1999/xlink" contentStyleType="text/css" height="1733px" preserveAspectRatio="none" style="width:3771px;height:1733px;background:#FFFFFF;" version="1.1" viewBox="0 0 3771 1733" width="3771px" zoomAndPan="magnify"><defs/><g><text fill="#000000" font-family="Verdana" font-size="14" font-weight="bold" lengthAdjust="spacing" textLength="446" x="1655.5" y="22.9951">UAE Banking Platform - Technical Container Architecture</text><!--cluster Client Tier--><g id="cluster_Client Tier"><path d="M2927.5,43.2969 L3000.5,43.2969 A3.75,3.75 0 0 1 3003,45.7969 L3010,63.2656 L3400.5,63.2656 A2.5,2.5 0 0 1 3403,65.7656 L3403,332.7969 A2.5,2.5 0 0 1 3400.5,335.2969 L2927.5,335.2969 A2.5,2.5 0 0 1 2925,332.7969 L2925,45.7969 A2.5,2.5 0 0 1 2927.5,43.2969 " fill="#F5F5F5" style="stroke:#666666;stroke-width:1.5;"/><line style="stroke:#666666;stroke-width:1.5;" x1="2925" x2="3010" y1="63.2656" y2="63.2656"/><text fill="#000000" font-family="Verdana" font-size="12" font-weight="bold" lengthAdjust="spacing" textLength="72" x="2929" y="56.4355">Client Tier</text></g><!--cluster web--><g id="cluster_web"><rect fill="#FFFFFF" height="130" rx="2.5" ry="2.5" style="stroke:#333333;stroke-width:1.0;" width="175" x="2957" y="173.2969"/><rect fill="#FFFFFF" height="10" style="stroke:#333333;stroke-width:1.0;" width="15" x="3112" y="178.2969"/><rect fill="#FFFFFF" height="2" style="stroke:#333333;stroke-width:1.0;" width="4" x="3110" y="180.2969"/><rect fill="#FFFFFF" height="2" style="stroke:#333333;stroke-width:1.0;" width="4" x="3110" y="184.2969"/><text fill="#000000" font-family="Verdana" font-size="12" font-weight="bold" lengthAdjust="spacing" textLength="115" x="2987" y="197.4355">Web Application</text></g><!--cluster mobile--><g id="cluster_mobile"><rect fill="#FFFFFF" height="116" rx="2.5" ry="2.5" style="stroke:#333333;stroke-width:1.0;" width="199" x="3172" y="180.2969"/><rect fill="#FFFFFF" height="10" style="stroke:#333333;stroke-width:1.0;" width="15" x="3351" y="185.2969"/><rect fill="#FFFFFF" height="2" style="stroke:#333333;stroke-width:1.0;" width="4" x="3349" y="187.2969"/><rect fill="#FFFFFF" height="2" style="stroke:#333333;stroke-width:1.0;" width="4" x="3349" y="191.2969"/><text fill="#000000" font-family="Verdana" font-size="12" font-weight="bold" lengthAdjust="spacing" textLength="78" x="3232.5" y="204.4355">Mobile App</text></g><!--cluster Edge Layer--><g id="cluster_Edge Layer"><path d="M2925.5,359.2969 L3005.5,359.2969 A3.75,3.75 0 0 1 3008,361.7969 L3015,379.2656 L3231.5,379.2656 A2.5,2.5 0 0 1 3234,381.7656 L3234,864.7969 A2.5,2.5 0 0 1 3231.5,867.2969 L2925.5,867.2969 A2.5,2.5 0 0 1 2923,864.7969 L2923,361.7969 A2.5,2.5 0 0 1 2925.5,359.2969 " fill="#F5F5F5" style="stroke:#666666;stroke-width:1.5;"/><line style="stroke:#666666;stroke-width:1.5;" x1="2923" x2="3015" y1="379.2656" y2="379.2656"/><text fill="#000000" font-family="Verdana" font-size="12" font-weight="bold" lengthAdjust="spacing" textLength="79" x="2927" y="372.4355">Edge Layer</text></g><!--cluster cdn--><g id="cluster_cdn"><rect fill="#FFFFFF" height="116" rx="2.5" ry="2.5" style="stroke:#333333;stroke-width:1.0;" width="236" x="2957" y="407.2969"/><rect fill="#FFFFFF" height="10" style="stroke:#333333;stroke-width:1.0;" width="15" x="3173" y="412.2969"/><rect fill="#FFFFFF" height="2" style="stroke:#333333;stroke-width:1.0;" width="4" x="3171" y="414.2969"/><rect fill="#FFFFFF" height="2" style="stroke:#333333;stroke-width:1.0;" width="4" x="3171" y="418.2969"/><text fill="#000000" font-family="Verdana" font-size="12" font-weight="bold" lengthAdjust="spacing" textLength="111" x="3019.5" y="431.4355">CloudFront CDN</text></g><!--cluster waf--><g id="cluster_waf"><rect fill="#FFFFFF" height="116" rx="2.5" ry="2.5" style="stroke:#333333;stroke-width:1.0;" width="247" x="2955" y="563.2969"/><rect fill="#FFFFFF" height="10" style="stroke:#333333;stroke-width:1.0;" width="15" x="3182" y="568.2969"/><rect fill="#FFFFFF" height="2" style="stroke:#333333;stroke-width:1.0;" width="4" x="3180" y="570.2969"/><rect fill="#FFFFFF" height="2" style="stroke:#333333;stroke-width:1.0;" width="4" x="3180" y="574.2969"/><text fill="#000000" font-family="Verdana" font-size="12" font-weight="bold" lengthAdjust="spacing" textLength="31" x="3063" y="587.4355">WAF</text></g><!--cluster apigw--><g id="cluster_apigw"><rect fill="#FFFFFF" height="116" rx="2.5" ry="2.5" style="stroke:#333333;stroke-width:1.0;" width="205" x="2955" y="719.2969"/><rect fill="#FFFFFF" height="10" style="stroke:#333333;stroke-width:1.0;" width="15" x="3140" y="724.2969"/><rect fill="#FFFFFF" height="2" style="stroke:#333333;stroke-width:1.0;" width="4" x="3138" y="726.2969"/><rect fill="#FFFFFF" height="2" style="stroke:#333333;stroke-width:1.0;" width="4" x="3138" y="730.2969"/><text fill="#000000" font-family="Verdana" font-size="12" font-weight="bold" lengthAdjust="spacing" textLength="89" x="3013" y="743.4355">API Gateway</text></g><!--cluster Security--><g id="cluster_Security"><path d="M1551.5,1357.2969 L1610.5,1357.2969 A3.75,3.75 0 0 1 1613,1359.7969 L1620,1377.2656 L2231.5,1377.2656 A2.5,2.5 0 0 1 2234,1379.7656 L2234,1550.7969 A2.5,2.5 0 0 1 2231.5,1553.2969 L1551.5,1553.2969 A2.5,2.5 0 0 1 1549,1550.7969 L1549,1359.7969 A2.5,2.5 0 0 1 1551.5,1357.2969 " fill="#F5F5F5" style="stroke:#666666;stroke-width:1.5;"/><line style="stroke:#666666;stroke-width:1.5;" x1="1549" x2="1620" y1="1377.2656" y2="1377.2656"/><text fill="#000000" font-family="Verdana" font-size="12" font-weight="bold" lengthAdjust="spacing" textLength="58" x="1553" y="1370.4355">Security</text></g><!--cluster auth--><g id="cluster_auth"><rect fill="#FFFFFF" height="116" rx="2.5" ry="2.5" style="stroke:#333333;stroke-width:1.0;" width="167" x="1581" y="1405.2969"/><rect fill="#FFFFFF" height="10" style="stroke:#333333;stroke-width:1.0;" width="15" x="1728" y="1410.2969"/><rect fill="#FFFFFF" height="2" style="stroke:#333333;stroke-width:1.0;" width="4" x="1726" y="1412.2969"/><rect fill="#FFFFFF" height="2" style="stroke:#333333;stroke-width:1.0;" width="4" x="1726" y="1416.2969"/><text fill="#000000" font-family="Verdana" font-size="12" font-weight="bold" lengthAdjust="spacing" textLength="55" x="1637" y="1429.4355">Cognito</text></g><!--cluster secrets--><g id="cluster_secrets"><rect fill="#FFFFFF" height="116" rx="2.5" ry="2.5" style="stroke:#333333;stroke-width:1.0;" width="159" x="2043" y="1405.2969"/><rect fill="#FFFFFF" height="10" style="stroke:#333333;stroke-width:1.0;" width="15" x="2182" y="1410.2969"/><rect fill="#FFFFFF" height="2" style="stroke:#333333;stroke-width:1.0;" width="4" x="2180" y="1412.2969"/><rect fill="#FFFFFF" height="2" style="stroke:#333333;stroke-width:1.0;" width="4" x="2180" y="1416.2969"/><text fill="#000000" font-family="Verdana" font-size="12" font-weight="bold" lengthAdjust="spacing" textLength="121" x="2062" y="1429.4355">Secrets Manager</text></g><!--cluster kms--><g id="cluster_kms"><rect fill="#FFFFFF" height="102" rx="2.5" ry="2.5" style="stroke:#333333;stroke-width:1.0;" width="215" x="1788" y="1412.2969"/><rect fill="#FFFFFF" height="10" style="stroke:#333333;stroke-width:1.0;" width="15" x="1983" y="1417.2969"/><rect fill="#FFFFFF" height="2" style="stroke:#333333;stroke-width:1.0;" width="4" x="1981" y="1419.2969"/><rect fill="#FFFFFF" height="2" style="stroke:#333333;stroke-width:1.0;" width="4" x="1981" y="1423.2969"/><text fill="#000000" font-family="Verdana" font-size="12" font-weight="bold" lengthAdjust="spacing" textLength="30" x="1880.5" y="1436.4355">KMS</text></g><!--cluster Application Layer--><g id="cluster_Application Layer"><path d="M8.5,891.2969 L132.5,891.2969 A3.75,3.75 0 0 1 135,893.7969 L142,911.2656 L3520.5,911.2656 A2.5,2.5 0 0 1 3523,913.7656 L3523,1308.7969 A2.5,2.5 0 0 1 3520.5,1311.2969 L8.5,1311.2969 A2.5,2.5 0 0 1 6,1308.7969 L6,893.7969 A2.5,2.5 0 0 1 8.5,891.2969 " fill="#F5F5F5" style="stroke:#666666;stroke-width:1.5;"/><line style="stroke:#666666;stroke-width:1.5;" x1="6" x2="142" y1="911.2656" y2="911.2656"/><text fill="#000000" font-family="Verdana" font-size="12" font-weight="bold" lengthAdjust="spacing" textLength="123" x="10" y="904.4355">Application Layer</text></g><!--cluster alb--><g id="cluster_alb"><rect fill="#FFFFFF" height="116" rx="2.5" ry="2.5" style="stroke:#333333;stroke-width:1.0;" width="185" x="2786" y="939.2969"/><rect fill="#FFFFFF" height="10" style="stroke:#333333;stroke-width:1.0;" width="15" x="2951" y="944.2969"/><rect fill="#FFFFFF" height="2" style="stroke:#333333;stroke-width:1.0;" width="4" x="2949" y="946.2969"/><rect fill="#FFFFFF" height="2" style="stroke:#333333;stroke-width:1.0;" width="4" x="2949" y="950.2969"/><text fill="#000000" font-family="Verdana" font-size="12" font-weight="bold" lengthAdjust="spacing" textLength="132" x="2812.5" y="963.4355">App Load Balancer</text></g><!--cluster EKS Cluster--><g id="cluster_EKS Cluster"><path d="M32.5,1087.2969 L114.5,1087.2969 A3.75,3.75 0 0 1 117,1089.7969 L124,1107.2656 L3496.5,1107.2656 A2.5,2.5 0 0 1 3499,1109.7656 L3499,1284.7969 A2.5,2.5 0 0 1 3496.5,1287.2969 L32.5,1287.2969 A2.5,2.5 0 0 1 30,1284.7969 L30,1089.7969 A2.5,2.5 0 0 1 32.5,1087.2969 " fill="#F5F5F5" style="stroke:#666666;stroke-width:1.5;"/><line style="stroke:#666666;stroke-width:1.5;" x1="30" x2="124" y1="1107.2656" y2="1107.2656"/><text fill="#000000" font-family="Verdana" font-size="12" font-weight="bold" lengthAdjust="spacing" textLength="81" x="34" y="1100.4355">EKS Cluster</text></g><!--cluster account--><g id="cluster_account"><rect fill="#FFFFFF" height="102" rx="2.5" ry="2.5" style="stroke:#333333;stroke-width:1.0;" width="236" x="3231" y="1152.2969"/><rect fill="#FFFFFF" height="10" style="stroke:#333333;stroke-width:1.0;" width="15" x="3447" y="1157.2969"/><rect fill="#FFFFFF" height="2" style="stroke:#333333;stroke-width:1.0;" width="4" x="3445" y="1159.2969"/><rect fill="#FFFFFF" height="2" style="stroke:#333333;stroke-width:1.0;" width="4" x="3445" y="1163.2969"/><text fill="#000000" font-family="Verdana" font-size="12" font-weight="bold" lengthAdjust="spacing" textLength="111" x="3293.5" y="1176.4355">Account Service</text></g><!--cluster payment--><g id="cluster_payment"><rect fill="#FFFFFF" height="102" rx="2.5" ry="2.5" style="stroke:#333333;stroke-width:1.0;" width="236" x="2955" y="1152.2969"/><rect fill="#FFFFFF" height="10" style="stroke:#333333;stroke-width:1.0;" width="15" x="3171" y="1157.2969"/><rect fill="#FFFFFF" height="2" style="stroke:#333333;stroke-width:1.0;" width="4" x="3169" y="1159.2969"/><rect fill="#FFFFFF" height="2" style="stroke:#333333;stroke-width:1.0;" width="4" x="3169" y="1163.2969"/><text fill="#000000" font-family="Verdana" font-size="12" font-weight="bold" lengthAdjust="spacing" textLength="117" x="3014.5" y="1176.4355">Payment Service</text></g><!--cluster notification--><g id="cluster_notification"><rect fill="#FFFFFF" height="102" rx="2.5" ry="2.5" style="stroke:#333333;stroke-width:1.0;" width="203" x="2712" y="1152.2969"/><rect fill="#FFFFFF" height="10" style="stroke:#333333;stroke-width:1.0;" width="15" x="2895" y="1157.2969"/><rect fill="#FFFFFF" height="2" style="stroke:#333333;stroke-width:1.0;" width="4" x="2893" y="1159.2969"/><rect fill="#FFFFFF" height="2" style="stroke:#333333;stroke-width:1.0;" width="4" x="2893" y="1163.2969"/><text fill="#000000" font-family="Verdana" font-size="12" font-weight="bold" lengthAdjust="spacing" textLength="137" x="2745" y="1176.4355">Notification Service</text></g><!--cluster ecr--><g id="cluster_ecr"><rect fill="#FFFFFF" height="86" rx="2.5" ry="2.5" style="stroke:#333333;stroke-width:1.0;" width="154" x="2526" y="1160.2969"/><rect fill="#FFFFFF" height="10" style="stroke:#333333;stroke-width:1.0;" width="15" x="2660" y="1165.2969"/><rect fill="#FFFFFF" height="2" style="stroke:#333333;stroke-width:1.0;" width="4" x="2658" y="1167.2969"/><rect fill="#FFFFFF" height="2" style="stroke:#333333;stroke-width:1.0;" width="4" x="2658" y="1171.2969"/><text fill="#000000" font-family="Verdana" font-size="12" font-weight="bold" lengthAdjust="spacing" textLength="133" x="2536.5" y="1184.4355">Container Registry</text></g><!--cluster Microservices--><g id="cluster_Microservices"><rect fill="#F5F5F5" height="136" rx="2.5" ry="2.5" style="stroke:#666666;stroke-width:1.0;" width="2324" x="178" y="1127.2969"/><text fill="#000000" font-family="Verdana" font-size="12" font-weight="bold" lengthAdjust="spacing" textLength="96" x="1292" y="1140.4355">Microservices</text></g><!--cluster Account Service--><g id="cluster_Account Service"><rect fill="#F5F5F5" height="72" rx="2.5" ry="2.5" style="stroke:#666666;stroke-width:1.0;" width="553" x="1925" y="1167.2969"/><text fill="#000000" font-family="Verdana" font-size="12" font-weight="bold" lengthAdjust="spacing" textLength="111" x="2146" y="1180.4355">Account Service</text></g><!--cluster Payment Service--><g id="cluster_Payment Service"><rect fill="#F5F5F5" height="72" rx="2.5" ry="2.5" style="stroke:#666666;stroke-width:1.0;" width="553" x="1348" y="1167.2969"/><text fill="#000000" font-family="Verdana" font-size="12" font-weight="bold" lengthAdjust="spacing" textLength="117" x="1566" y="1180.4355">Payment Service</text></g><!--cluster Notification Service--><g id="cluster_Notification Service"><rect fill="#F5F5F5" height="72" rx="2.5" ry="2.5" style="stroke:#666666;stroke-width:1.0;" width="545" x="779" y="1167.2969"/><text fill="#000000" font-family="Verdana" font-size="12" font-weight="bold" lengthAdjust="spacing" textLength="137" x="983" y="1180.4355">Notification Service</text></g><!--cluster Utility Service--><g id="cluster_Utility Service"><rect fill="#F5F5F5" height="72" rx="2.5" ry="2.5" style="stroke:#666666;stroke-width:1.0;" width="553" x="202" y="1167.2969"/><text fill="#000000" font-family="Verdana" font-size="12" font-weight="bold" lengthAdjust="spacing" textLength="97" x="430" y="1180.4355">Utility Service</text></g><!--cluster Data Layer--><g id="cluster_Data Layer"><path d="M2260.5,1335.2969 L2339.5,1335.2969 A3.75,3.75 0 0 1 2342,1337.7969 L2349,1355.2656 L3233.5,1355.2656 A2.5,2.5 0 0 1 3236,1357.7656 L3236,1557.7969 A2.5,2.5 0 0 1 3233.5,1560.2969 L2260.5,1560.2969 A2.5,2.5 0 0 1 2258,1557.7969 L2258,1337.7969 A2.5,2.5 0 0 1 2260.5,1335.2969 " fill="#F5F5F5" style="stroke:#666666;stroke-width:1.5;"/><line style="stroke:#666666;stroke-width:1.5;" x1="2258" x2="2349" y1="1355.2656" y2="1355.2656"/><text fill="#000000" font-family="Verdana" font-size="12" font-weight="bold" lengthAdjust="spacing" textLength="78" x="2262" y="1348.4355">Data Layer</text></g><!--cluster dynamo--><g id="cluster_dynamo"><path d="M3031,1400.2969 C3031,1390.2969 3117.5,1390.2969 3117.5,1390.2969 C3117.5,1390.2969 3204,1390.2969 3204,1400.2969 L3204,1511.2969 C3204,1521.2969 3117.5,1521.2969 3117.5,1521.2969 C3117.5,1521.2969 3031,1521.2969 3031,1511.2969 L3031,1400.2969 " fill="#FFFFFF" style="stroke:#333333;stroke-width:1.0;"/><path d="M3031,1400.2969 C3031,1410.2969 3117.5,1410.2969 3117.5,1410.2969 C3117.5,1410.2969 3204,1410.2969 3204,1400.2969 " fill="none" style="stroke:#333333;stroke-width:1.0;"/><text fill="#000000" font-family="Verdana" font-size="12" font-weight="bold" lengthAdjust="spacing" textLength="76" x="3079.5" y="1423.4355">DynamoDB</text></g><!--cluster redis--><g id="cluster_redis"><path d="M2820,1393.2969 C2820,1383.2969 2905.5,1383.2969 2905.5,1383.2969 C2905.5,1383.2969 2991,1383.2969 2991,1393.2969 L2991,1518.2969 C2991,1528.2969 2905.5,1528.2969 2905.5,1528.2969 C2905.5,1528.2969 2820,1528.2969 2820,1518.2969 L2820,1393.2969 " fill="#FFFFFF" style="stroke:#333333;stroke-width:1.0;"/><path d="M2820,1393.2969 C2820,1403.2969 2905.5,1403.2969 2905.5,1403.2969 C2905.5,1403.2969 2991,1403.2969 2991,1393.2969 " fill="none" style="stroke:#333333;stroke-width:1.0;"/><text fill="#000000" font-family="Verdana" font-size="12" font-weight="bold" lengthAdjust="spacing" textLength="86" x="2862.5" y="1416.4355">Redis Cache</text></g><!--cluster s3--><g id="cluster_s3"><path d="M2619,1400.2969 C2619,1390.2969 2699.5,1390.2969 2699.5,1390.2969 C2699.5,1390.2969 2780,1390.2969 2780,1400.2969 L2780,1511.2969 C2780,1521.2969 2699.5,1521.2969 2699.5,1521.2969 C2699.5,1521.2969 2619,1521.2969 2619,1511.2969 L2619,1400.2969 " fill="#FFFFFF" style="stroke:#333333;stroke-width:1.0;"/><path d="M2619,1400.2969 C2619,1410.2969 2699.5,1410.2969 2699.5,1410.2969 C2699.5,1410.2969 2780,1410.2969 2780,1400.2969 " fill="none" style="stroke:#333333;stroke-width:1.0;"/><text fill="#000000" font-family="Verdana" font-size="12" font-weight="bold" lengthAdjust="spacing" textLength="78" x="2660.5" y="1423.4355">S3 Storage</text></g><!--cluster aurora--><g id="cluster_aurora"><path d="M2290,1393.2969 C2290,1383.2969 2374.5,1383.2969 2374.5,1383.2969 C2374.5,1383.2969 2459,1383.2969 2459,1393.2969 L2459,1518.2969 C2459,1528.2969 2374.5,1528.2969 2374.5,1528.2969 C2374.5,1528.2969 2290,1528.2969 2290,1518.2969 L2290,1393.2969 " fill="#FFFFFF" style="stroke:#333333;stroke-width:1.0;"/><path d="M2290,1393.2969 C2290,1403.2969 2374.5,1403.2969 2374.5,1403.2969 C2374.5,1403.2969 2459,1403.2969 2459,1393.2969 " fill="none" style="stroke:#333333;stroke-width:1.0;"/><text fill="#000000" font-family="Verdana" font-size="12" font-weight="bold" lengthAdjust="spacing" textLength="99" x="2325" y="1416.4355">Aurora MySQL</text></g><!--cluster Integration--><g id="cluster_Integration"><path d="M3262.5,1364.2969 L3343.5,1364.2969 A3.75,3.75 0 0 1 3346,1366.7969 L3353,1384.2656 L3520.5,1384.2656 A2.5,2.5 0 0 1 3523,1386.7656 L3523,1723.7969 A2.5,2.5 0 0 1 3520.5,1726.2969 L3262.5,1726.2969 A2.5,2.5 0 0 1 3260,1723.7969 L3260,1366.7969 A2.5,2.5 0 0 1 3262.5,1364.2969 " fill="#F5F5F5" style="stroke:#666666;stroke-width:1.5;"/><line style="stroke:#666666;stroke-width:1.5;" x1="3260" x2="3353" y1="1384.2656" y2="1384.2656"/><text fill="#000000" font-family="Verdana" font-size="12" font-weight="bold" lengthAdjust="spacing" textLength="80" x="3264" y="1377.4355">Integration</text></g><!--cluster sns--><g id="cluster_sns"><path d="M3297,1412.2969 L3486,1412.2969 C3491,1412.2969 3491,1463.2969 3491,1463.2969 C3491,1463.2969 3491,1514.2969 3486,1514.2969 L3297,1514.2969 C3292,1514.2969 3292,1463.2969 3292,1463.2969 C3292,1463.2969 3292,1412.2969 3297,1412.2969 " fill="#FFFFFF" style="stroke:#333333;stroke-width:1.0;"/><path d="M3486,1412.2969 C3481,1412.2969 3481,1463.2969 3481,1463.2969 C3481,1514.2969 3486,1514.2969 3486,1514.2969 " fill="none" style="stroke:#333333;stroke-width:1.0;"/><text fill="#000000" font-family="Verdana" font-size="12" font-weight="bold" lengthAdjust="spacing" textLength="77" x="3353" y="1425.4355">SNS Topics</text></g><!--cluster sqs--><g id="cluster_sqs"><path d="M3329,1592.2969 L3486,1592.2969 C3491,1592.2969 3491,1643.2969 3491,1643.2969 C3491,1643.2969 3491,1694.2969 3486,1694.2969 L3329,1694.2969 C3324,1694.2969 3324,1643.2969 3324,1643.2969 C3324,1643.2969 3324,1592.2969 3329,1592.2969 " fill="#FFFFFF" style="stroke:#333333;stroke-width:1.0;"/><path d="M3486,1592.2969 C3481,1592.2969 3481,1643.2969 3481,1643.2969 C3481,1694.2969 3486,1694.2969 3486,1694.2969 " fill="none" style="stroke:#333333;stroke-width:1.0;"/><text fill="#000000" font-family="Verdana" font-size="12" font-weight="bold" lengthAdjust="spacing" textLength="86" x="3364.5" y="1605.4355">SQS Queues</text></g><!--cluster Monitoring--><g id="cluster_Monitoring"><path d="M3549.5,1142.2969 L3627.5,1142.2969 A3.75,3.75 0 0 1 3630,1144.7969 L3637,1162.2656 L3741.5,1162.2656 A2.5,2.5 0 0 1 3744,1164.7656 L3744,1550.7969 A2.5,2.5 0 0 1 3741.5,1553.2969 L3549.5,1553.2969 A2.5,2.5 0 0 1 3547,1550.7969 L3547,1144.7969 A2.5,2.5 0 0 1 3549.5,1142.2969 " fill="#F5F5F5" style="stroke:#666666;stroke-width:1.5;"/><line style="stroke:#666666;stroke-width:1.5;" x1="3547" x2="3637" y1="1162.2656" y2="1162.2656"/><text fill="#000000" font-family="Verdana" font-size="12" font-weight="bold" lengthAdjust="spacing" textLength="77" x="3551" y="1155.4355">Monitoring</text></g><!--cluster cw--><g id="cluster_cw"><rect fill="#FFFFFF" height="116" rx="2.5" ry="2.5" style="stroke:#333333;stroke-width:1.0;" width="133" x="3579" y="1405.2969"/><rect fill="#FFFFFF" height="10" style="stroke:#333333;stroke-width:1.0;" width="15" x="3692" y="1410.2969"/><rect fill="#FFFFFF" height="2" style="stroke:#333333;stroke-width:1.0;" width="4" x="3690" y="1412.2969"/><rect fill="#FFFFFF" height="2" style="stroke:#333333;stroke-width:1.0;" width="4" x="3690" y="1416.2969"/><text fill="#000000" font-family="Verdana" font-size="12" font-weight="bold" lengthAdjust="spacing" textLength="85" x="3603" y="1429.4355">CloudWatch</text></g><!--entity users--><g id="elem_users"><ellipse cx="3009" cy="83.7969" fill="#F1F1F1" rx="8" ry="8" style="stroke:#181818;stroke-width:0.5;"/><path d="M3009,91.7969 L3009,118.7969 M2996,99.7969 L3022,99.7969 M3009,118.7969 L2996,133.7969 M3009,118.7969 L3022,133.7969 " fill="none" style="stroke:#181818;stroke-width:0.5;"/><text fill="#000000" font-family="Verdana" font-size="12" lengthAdjust="spacing" textLength="36" x="2991" y="146.4355">Users</text></g><g id="elem_GMN5"><path d="M3000,213.2969 L3000,279.1719 L3108,279.1719 L3108,223.2969 L3098,213.2969 L3000,213.2969 " fill="#F5F5F5" style="stroke:#999999;stroke-width:0.5;"/><path d="M3098,213.2969 L3098,223.2969 L3108,223.2969 L3098,213.2969 " fill="#F5F5F5" style="stroke:#999999;stroke-width:1.0;"/><text fill="#000000" font-family="Verdana" font-size="12" lengthAdjust="spacing" textLength="66" x="3006" y="229.4355">React 18.x</text><text fill="#000000" font-family="Verdana" font-size="12" lengthAdjust="spacing" textLength="87" x="3006" y="243.4043">TypeScript 5.x</text><text fill="#000000" font-family="Verdana" font-size="12" lengthAdjust="spacing" textLength="81" x="3006" y="257.373">PWA Support</text><text fill="#000000" font-family="Verdana" font-size="12" lengthAdjust="spacing" textLength="80" x="3006" y="271.3418">OpenAPI SDK</text></g><g id="elem_GMN9"><path d="M3215,220.2969 L3215,272.2031 L3347,272.2031 L3347,230.2969 L3337,220.2969 L3215,220.2969 " fill="#F5F5F5" style="stroke:#999999;stroke-width:0.5;"/><path d="M3337,220.2969 L3337,230.2969 L3347,230.2969 L3337,220.2969 " fill="#F5F5F5" style="stroke:#999999;stroke-width:1.0;"/><text fill="#000000" font-family="Verdana" font-size="12" lengthAdjust="spacing" textLength="111" x="3221" y="236.4355">React Native 0.72</text><text fill="#000000" font-family="Verdana" font-size="12" lengthAdjust="spacing" textLength="91" x="3221" y="250.4043">Biometric Auth</text><text fill="#000000" font-family="Verdana" font-size="12" lengthAdjust="spacing" textLength="93" x="3221" y="264.373">Offline Support</text></g><g id="elem_GMN63"><path d="M3000.5,447.2969 L3000.5,499.2031 L3169.5,499.2031 L3169.5,457.2969 L3159.5,447.2969 L3000.5,447.2969 " fill="#F5F5F5" style="stroke:#999999;stroke-width:0.5;"/><path d="M3159.5,447.2969 L3159.5,457.2969 L3169.5,457.2969 L3159.5,447.2969 " fill="#F5F5F5" style="stroke:#999999;stroke-width:1.0;"/><text fill="#000000" font-family="Verdana" font-size="12" lengthAdjust="spacing" textLength="69" x="3006.5" y="463.4355">Global CDN</text><text fill="#000000" font-family="Verdana" font-size="12" lengthAdjust="spacing" textLength="148" x="3006.5" y="477.4043">DDoS Protection (10TB)</text><text fill="#000000" font-family="Verdana" font-size="12" lengthAdjust="spacing" textLength="112" x="3006.5" y="491.373">Edge Locations: 3</text></g><g id="elem_GMN66"><path d="M2998.5,603.2969 L2998.5,655.2031 L3177.5,655.2031 L3177.5,613.2969 L3167.5,603.2969 L2998.5,603.2969 " fill="#F5F5F5" style="stroke:#999999;stroke-width:0.5;"/><path d="M3167.5,603.2969 L3167.5,613.2969 L3177.5,613.2969 L3167.5,603.2969 " fill="#F5F5F5" style="stroke:#999999;stroke-width:1.0;"/><text fill="#000000" font-family="Verdana" font-size="12" lengthAdjust="spacing" textLength="158" x="3004.5" y="619.4355">Rule Sets: OWASP Top 10</text><text fill="#000000" font-family="Verdana" font-size="12" lengthAdjust="spacing" textLength="120" x="3004.5" y="633.4043">Rate Limit: 10K RPS</text><text fill="#000000" font-family="Verdana" font-size="12" lengthAdjust="spacing" textLength="81" x="3004.5" y="647.373">Geo-blocking</text></g><g id="elem_GMN69"><path d="M2998.5,759.2969 L2998.5,811.2031 L3135.5,811.2031 L3135.5,769.2969 L3125.5,759.2969 L2998.5,759.2969 " fill="#F5F5F5" style="stroke:#999999;stroke-width:0.5;"/><path d="M3125.5,759.2969 L3125.5,769.2969 L3135.5,769.2969 L3125.5,759.2969 " fill="#F5F5F5" style="stroke:#999999;stroke-width:1.0;"/><text fill="#000000" font-family="Verdana" font-size="12" lengthAdjust="spacing" textLength="61" x="3004.5" y="775.4355">REST APIs</text><text fill="#000000" font-family="Verdana" font-size="12" lengthAdjust="spacing" textLength="70" x="3004.5" y="789.4043">WebSocket</text><text fill="#000000" font-family="Verdana" font-size="12" lengthAdjust="spacing" textLength="116" x="3004.5" y="803.373">Request Throttling</text></g><g id="elem_GMN73"><path d="M1605,1445.2969 L1605,1497.2031 L1705,1497.2031 L1705,1455.2969 L1695,1445.2969 L1605,1445.2969 " fill="#F5F5F5" style="stroke:#999999;stroke-width:0.5;"/><path d="M1695,1445.2969 L1695,1455.2969 L1705,1455.2969 L1695,1445.2969 " fill="#F5F5F5" style="stroke:#999999;stroke-width:1.0;"/><text fill="#000000" font-family="Verdana" font-size="12" lengthAdjust="spacing" textLength="67" x="1611" y="1461.4355">User Pools</text><text fill="#000000" font-family="Verdana" font-size="12" lengthAdjust="spacing" textLength="25" x="1611" y="1475.4043">MFA</text><text fill="#000000" font-family="Verdana" font-size="12" lengthAdjust="spacing" textLength="79" x="1611" y="1489.373">OAuth2/OIDC</text></g><g id="elem_GMN76"><path d="M2086,1445.2969 L2086,1497.2031 L2178,1497.2031 L2178,1455.2969 L2168,1445.2969 L2086,1445.2969 " fill="#F5F5F5" style="stroke:#999999;stroke-width:0.5;"/><path d="M2168,1445.2969 L2168,1455.2969 L2178,1455.2969 L2168,1445.2969 " fill="#F5F5F5" style="stroke:#999999;stroke-width:1.0;"/><text fill="#000000" font-family="Verdana" font-size="12" lengthAdjust="spacing" textLength="71" x="2092" y="1461.4355">Credentials</text><text fill="#000000" font-family="Verdana" font-size="12" lengthAdjust="spacing" textLength="51" x="2092" y="1475.4043">API Keys</text><text fill="#000000" font-family="Verdana" font-size="12" lengthAdjust="spacing" textLength="53" x="2092" y="1489.373">Rotation</text></g><g id="elem_GMN79"><path d="M1812,1452.2969 L1812,1490.2344 L1960,1490.2344 L1960,1462.2969 L1950,1452.2969 L1812,1452.2969 " fill="#F5F5F5" style="stroke:#999999;stroke-width:0.5;"/><path d="M1950,1452.2969 L1950,1462.2969 L1960,1462.2969 L1950,1452.2969 " fill="#F5F5F5" style="stroke:#999999;stroke-width:1.0;"/><text fill="#000000" font-family="Verdana" font-size="12" lengthAdjust="spacing" textLength="107" x="1818" y="1468.4355">Key Management</text><text fill="#000000" font-family="Verdana" font-size="12" lengthAdjust="spacing" textLength="127" x="1818" y="1482.4043">Envelope Encryption</text></g><g id="elem_GMN82"><path d="M2810.5,979.2969 L2810.5,1031.2031 L2927.5,1031.2031 L2927.5,989.2969 L2917.5,979.2969 L2810.5,979.2969 " fill="#F5F5F5" style="stroke:#999999;stroke-width:0.5;"/><path d="M2917.5,979.2969 L2917.5,989.2969 L2927.5,989.2969 L2917.5,979.2969 " fill="#F5F5F5" style="stroke:#999999;stroke-width:1.0;"/><text fill="#000000" font-family="Verdana" font-size="12" lengthAdjust="spacing" textLength="48" x="2816.5" y="995.4355">Internal</text><text fill="#000000" font-family="Verdana" font-size="12" lengthAdjust="spacing" textLength="39" x="2816.5" y="1009.4043">HTTPS</text><text fill="#000000" font-family="Verdana" font-size="12" lengthAdjust="spacing" textLength="96" x="2816.5" y="1023.373">Sticky Sessions</text></g><g id="elem_GMN85"><path d="M46.5,1178.2969 L46.5,1244.1719 L161.5,1244.1719 L161.5,1188.2969 L151.5,1178.2969 L46.5,1178.2969 " fill="#F5F5F5" style="stroke:#999999;stroke-width:0.5;"/><path d="M151.5,1178.2969 L151.5,1188.2969 L161.5,1188.2969 L151.5,1178.2969 " fill="#F5F5F5" style="stroke:#999999;stroke-width:1.0;"/><text fill="#000000" font-family="Verdana" font-size="12" lengthAdjust="spacing" textLength="61" x="52.5" y="1194.4355">EKS v1.27</text><text fill="#000000" font-family="Verdana" font-size="12" lengthAdjust="spacing" textLength="94" x="52.5" y="1208.4043">3 Node Groups</text><text fill="#000000" font-family="Verdana" font-size="12" lengthAdjust="spacing" textLength="69" x="52.5" y="1222.373">m5.2xlarge</text><text fill="#000000" font-family="Verdana" font-size="12" lengthAdjust="spacing" textLength="77" x="52.5" y="1236.3418">Auto-scaling</text></g><g id="elem_GMN24"><path d="M3274.5,1192.2969 L3274.5,1230.2344 L3443.5,1230.2344 L3443.5,1202.2969 L3433.5,1192.2969 L3274.5,1192.2969 " fill="#F5F5F5" style="stroke:#999999;stroke-width:0.5;"/><path d="M3433.5,1192.2969 L3433.5,1202.2969 L3443.5,1202.2969 L3433.5,1192.2969 " fill="#F5F5F5" style="stroke:#999999;stroke-width:1.0;"/><text fill="#000000" font-family="Verdana" font-size="12" lengthAdjust="spacing" textLength="148" x="3280.5" y="1208.4355">Java 17, Spring Boot 3.x</text><text fill="#000000" font-family="Verdana" font-size="12" lengthAdjust="spacing" textLength="106" x="3280.5" y="1222.4043">8GB RAM, 4 vCPU</text></g><g id="elem_GMN28"><path d="M2998.5,1192.2969 L2998.5,1230.2344 L3167.5,1230.2344 L3167.5,1202.2969 L3157.5,1192.2969 L2998.5,1192.2969 " fill="#F5F5F5" style="stroke:#999999;stroke-width:0.5;"/><path d="M3157.5,1192.2969 L3157.5,1202.2969 L3167.5,1202.2969 L3157.5,1192.2969 " fill="#F5F5F5" style="stroke:#999999;stroke-width:1.0;"/><text fill="#000000" font-family="Verdana" font-size="12" lengthAdjust="spacing" textLength="148" x="3004.5" y="1208.4355">Java 17, Spring Boot 3.x</text><text fill="#000000" font-family="Verdana" font-size="12" lengthAdjust="spacing" textLength="106" x="3004.5" y="1222.4043">8GB RAM, 4 vCPU</text></g><g id="elem_GMN32"><path d="M2755,1192.2969 L2755,1230.2344 L2891,1230.2344 L2891,1202.2969 L2881,1192.2969 L2755,1192.2969 " fill="#F5F5F5" style="stroke:#999999;stroke-width:0.5;"/><path d="M2881,1192.2969 L2881,1202.2969 L2891,1202.2969 L2881,1192.2969 " fill="#F5F5F5" style="stroke:#999999;stroke-width:1.0;"/><text fill="#000000" font-family="Verdana" font-size="12" lengthAdjust="spacing" textLength="115" x="2761" y="1208.4355">Node.js 18, NestJS</text><text fill="#000000" font-family="Verdana" font-size="12" lengthAdjust="spacing" textLength="106" x="2761" y="1222.4043">4GB RAM, 2 vCPU</text></g><g id="elem_GMN89"><path d="M2542.5,1192.2969 L2542.5,1230.2344 L2663.5,1230.2344 L2663.5,1202.2969 L2653.5,1192.2969 L2542.5,1192.2969 " fill="#F5F5F5" style="stroke:#999999;stroke-width:0.5;"/><path d="M2653.5,1192.2969 L2653.5,1202.2969 L2663.5,1202.2969 L2653.5,1192.2969 " fill="#F5F5F5" style="stroke:#999999;stroke-width:1.0;"/><text fill="#000000" font-family="Verdana" font-size="12" lengthAdjust="spacing" textLength="43" x="2548.5" y="1208.4355">Private</text><text fill="#000000" font-family="Verdana" font-size="12" lengthAdjust="spacing" textLength="100" x="2548.5" y="1222.4043">Image Scanning</text></g><g id="elem_GMN94"><path d="M1941,1199.2969 L1941,1223.2656 L2007,1223.2656 L2007,1209.2969 L1997,1199.2969 L1941,1199.2969 " fill="#F5F5F5" style="stroke:#999999;stroke-width:0.5;"/><path d="M1997,1199.2969 L1997,1209.2969 L2007,1209.2969 L1997,1199.2969 " fill="#F5F5F5" style="stroke:#999999;stroke-width:1.0;"/><text fill="#000000" font-family="Verdana" font-size="12" lengthAdjust="spacing" textLength="45" x="1947" y="1215.4355">Java 17</text></g><g id="elem_GMN97"><path d="M2042,1199.2969 L2042,1223.2656 L2158,1223.2656 L2158,1209.2969 L2148,1199.2969 L2042,1199.2969 " fill="#F5F5F5" style="stroke:#999999;stroke-width:0.5;"/><path d="M2148,1199.2969 L2148,1209.2969 L2158,1209.2969 L2148,1199.2969 " fill="#F5F5F5" style="stroke:#999999;stroke-width:1.0;"/><text fill="#000000" font-family="Verdana" font-size="12" lengthAdjust="spacing" textLength="95" x="2048" y="1215.4355">Spring Boot 3.x</text></g><g id="elem_GMN100"><path d="M2193.5,1199.2969 L2193.5,1223.2656 L2320.5,1223.2656 L2320.5,1209.2969 L2310.5,1199.2969 L2193.5,1199.2969 " fill="#F5F5F5" style="stroke:#999999;stroke-width:0.5;"/><path d="M2310.5,1199.2969 L2310.5,1209.2969 L2320.5,1209.2969 L2310.5,1199.2969 " fill="#F5F5F5" style="stroke:#999999;stroke-width:1.0;"/><text fill="#000000" font-family="Verdana" font-size="12" lengthAdjust="spacing" textLength="106" x="2199.5" y="1215.4355">8GB RAM, 4 vCPU</text></g><g id="elem_GMN103"><path d="M2355.5,1199.2969 L2355.5,1223.2656 L2462.5,1223.2656 L2462.5,1209.2969 L2452.5,1199.2969 L2355.5,1199.2969 " fill="#F5F5F5" style="stroke:#999999;stroke-width:0.5;"/><path d="M2452.5,1199.2969 L2452.5,1209.2969 L2462.5,1209.2969 L2452.5,1199.2969 " fill="#F5F5F5" style="stroke:#999999;stroke-width:1.0;"/><text fill="#000000" font-family="Verdana" font-size="12" lengthAdjust="spacing" textLength="86" x="2361.5" y="1215.4355">Min 3 replicas</text></g><g id="elem_GMN107"><path d="M1364,1199.2969 L1364,1223.2656 L1430,1223.2656 L1430,1209.2969 L1420,1199.2969 L1364,1199.2969 " fill="#F5F5F5" style="stroke:#999999;stroke-width:0.5;"/><path d="M1420,1199.2969 L1420,1209.2969 L1430,1209.2969 L1420,1199.2969 " fill="#F5F5F5" style="stroke:#999999;stroke-width:1.0;"/><text fill="#000000" font-family="Verdana" font-size="12" lengthAdjust="spacing" textLength="45" x="1370" y="1215.4355">Java 17</text></g><g id="elem_GMN110"><path d="M1465,1199.2969 L1465,1223.2656 L1581,1223.2656 L1581,1209.2969 L1571,1199.2969 L1465,1199.2969 " fill="#F5F5F5" style="stroke:#999999;stroke-width:0.5;"/><path d="M1571,1199.2969 L1571,1209.2969 L1581,1209.2969 L1571,1199.2969 " fill="#F5F5F5" style="stroke:#999999;stroke-width:1.0;"/><text fill="#000000" font-family="Verdana" font-size="12" lengthAdjust="spacing" textLength="95" x="1471" y="1215.4355">Spring Boot 3.x</text></g><g id="elem_GMN113"><path d="M1616.5,1199.2969 L1616.5,1223.2656 L1743.5,1223.2656 L1743.5,1209.2969 L1733.5,1199.2969 L1616.5,1199.2969 " fill="#F5F5F5" style="stroke:#999999;stroke-width:0.5;"/><path d="M1733.5,1199.2969 L1733.5,1209.2969 L1743.5,1209.2969 L1733.5,1199.2969 " fill="#F5F5F5" style="stroke:#999999;stroke-width:1.0;"/><text fill="#000000" font-family="Verdana" font-size="12" lengthAdjust="spacing" textLength="106" x="1622.5" y="1215.4355">8GB RAM, 4 vCPU</text></g><g id="elem_GMN116"><path d="M1778.5,1199.2969 L1778.5,1223.2656 L1885.5,1223.2656 L1885.5,1209.2969 L1875.5,1199.2969 L1778.5,1199.2969 " fill="#F5F5F5" style="stroke:#999999;stroke-width:0.5;"/><path d="M1875.5,1199.2969 L1875.5,1209.2969 L1885.5,1209.2969 L1875.5,1199.2969 " fill="#F5F5F5" style="stroke:#999999;stroke-width:1.0;"/><text fill="#000000" font-family="Verdana" font-size="12" lengthAdjust="spacing" textLength="86" x="1784.5" y="1215.4355">Min 3 replicas</text></g><g id="elem_GMN120"><path d="M795.5,1199.2969 L795.5,1223.2656 L908.5,1223.2656 L908.5,1209.2969 L898.5,1199.2969 L795.5,1199.2969 " fill="#F5F5F5" style="stroke:#999999;stroke-width:0.5;"/><path d="M898.5,1199.2969 L898.5,1209.2969 L908.5,1209.2969 L898.5,1199.2969 " fill="#F5F5F5" style="stroke:#999999;stroke-width:1.0;"/><text fill="#000000" font-family="Verdana" font-size="12" lengthAdjust="spacing" textLength="92" x="801.5" y="1215.4355">Node.js 18 LTS</text></g><g id="elem_GMN123"><path d="M943.5,1199.2969 L943.5,1223.2656 L1004.5,1223.2656 L1004.5,1209.2969 L994.5,1199.2969 L943.5,1199.2969 " fill="#F5F5F5" style="stroke:#999999;stroke-width:0.5;"/><path d="M994.5,1199.2969 L994.5,1209.2969 L1004.5,1209.2969 L994.5,1199.2969 " fill="#F5F5F5" style="stroke:#999999;stroke-width:1.0;"/><text fill="#000000" font-family="Verdana" font-size="12" lengthAdjust="spacing" textLength="40" x="949.5" y="1215.4355">NestJS</text></g><g id="elem_GMN126"><path d="M1039.5,1199.2969 L1039.5,1223.2656 L1166.5,1223.2656 L1166.5,1209.2969 L1156.5,1199.2969 L1039.5,1199.2969 " fill="#F5F5F5" style="stroke:#999999;stroke-width:0.5;"/><path d="M1156.5,1199.2969 L1156.5,1209.2969 L1166.5,1209.2969 L1156.5,1199.2969 " fill="#F5F5F5" style="stroke:#999999;stroke-width:1.0;"/><text fill="#000000" font-family="Verdana" font-size="12" lengthAdjust="spacing" textLength="106" x="1045.5" y="1215.4355">4GB RAM, 2 vCPU</text></g><g id="elem_GMN129"><path d="M1201.5,1199.2969 L1201.5,1223.2656 L1308.5,1223.2656 L1308.5,1209.2969 L1298.5,1199.2969 L1201.5,1199.2969 " fill="#F5F5F5" style="stroke:#999999;stroke-width:0.5;"/><path d="M1298.5,1199.2969 L1298.5,1209.2969 L1308.5,1209.2969 L1298.5,1199.2969 " fill="#F5F5F5" style="stroke:#999999;stroke-width:1.0;"/><text fill="#000000" font-family="Verdana" font-size="12" lengthAdjust="spacing" textLength="86" x="1207.5" y="1215.4355">Min 2 replicas</text></g><g id="elem_GMN133"><path d="M218,1199.2969 L218,1223.2656 L284,1223.2656 L284,1209.2969 L274,1199.2969 L218,1199.2969 " fill="#F5F5F5" style="stroke:#999999;stroke-width:0.5;"/><path d="M274,1199.2969 L274,1209.2969 L284,1209.2969 L274,1199.2969 " fill="#F5F5F5" style="stroke:#999999;stroke-width:1.0;"/><text fill="#000000" font-family="Verdana" font-size="12" lengthAdjust="spacing" textLength="45" x="224" y="1215.4355">Java 17</text></g><g id="elem_GMN136"><path d="M319,1199.2969 L319,1223.2656 L435,1223.2656 L435,1209.2969 L425,1199.2969 L319,1199.2969 " fill="#F5F5F5" style="stroke:#999999;stroke-width:0.5;"/><path d="M425,1199.2969 L425,1209.2969 L435,1209.2969 L425,1199.2969 " fill="#F5F5F5" style="stroke:#999999;stroke-width:1.0;"/><text fill="#000000" font-family="Verdana" font-size="12" lengthAdjust="spacing" textLength="95" x="325" y="1215.4355">Spring Boot 3.x</text></g><g id="elem_GMN139"><path d="M470.5,1199.2969 L470.5,1223.2656 L597.5,1223.2656 L597.5,1209.2969 L587.5,1199.2969 L470.5,1199.2969 " fill="#F5F5F5" style="stroke:#999999;stroke-width:0.5;"/><path d="M587.5,1199.2969 L587.5,1209.2969 L597.5,1209.2969 L587.5,1199.2969 " fill="#F5F5F5" style="stroke:#999999;stroke-width:1.0;"/><text fill="#000000" font-family="Verdana" font-size="12" lengthAdjust="spacing" textLength="106" x="476.5" y="1215.4355">4GB RAM, 2 vCPU</text></g><g id="elem_GMN142"><path d="M632.5,1199.2969 L632.5,1223.2656 L739.5,1223.2656 L739.5,1209.2969 L729.5,1199.2969 L632.5,1199.2969 " fill="#F5F5F5" style="stroke:#999999;stroke-width:0.5;"/><path d="M729.5,1199.2969 L729.5,1209.2969 L739.5,1209.2969 L729.5,1199.2969 " fill="#F5F5F5" style="stroke:#999999;stroke-width:1.0;"/><text fill="#000000" font-family="Verdana" font-size="12" lengthAdjust="spacing" textLength="86" x="638.5" y="1215.4355">Min 2 replicas</text></g><!--entity db--><g id="elem_db"><path d="M2486.5,1459.7969 C2486.5,1449.7969 2539,1449.7969 2539,1449.7969 C2539,1449.7969 2591.5,1449.7969 2591.5,1459.7969 L2591.5,1482.7656 C2591.5,1492.7656 2539,1492.7656 2539,1492.7656 C2539,1492.7656 2486.5,1492.7656 2486.5,1482.7656 L2486.5,1459.7969 " fill="#FFFFFF" style="stroke:#333333;stroke-width:0.5;"/><path d="M2486.5,1459.7969 C2486.5,1469.7969 2539,1469.7969 2539,1469.7969 C2539,1469.7969 2591.5,1469.7969 2591.5,1459.7969 " fill="none" style="stroke:#333333;stroke-width:0.5;"/><text fill="#000000" font-family="Verdana" font-size="12" lengthAdjust="spacing" textLength="85" x="2496.5" y="1484.9355">Aurora MySQL</text></g><g id="elem_GMN149"><path d="M3074.5,1445.2969 L3074.5,1497.2031 L3179.5,1497.2031 L3179.5,1455.2969 L3169.5,1445.2969 L3074.5,1445.2969 " fill="#F5F5F5" style="stroke:#999999;stroke-width:0.5;"/><path d="M3169.5,1445.2969 L3169.5,1455.2969 L3179.5,1455.2969 L3169.5,1445.2969 " fill="#F5F5F5" style="stroke:#999999;stroke-width:1.0;"/><text fill="#000000" font-family="Verdana" font-size="12" lengthAdjust="spacing" textLength="73" x="3080.5" y="1461.4355">On-Demand</text><text fill="#000000" font-family="Verdana" font-size="12" lengthAdjust="spacing" textLength="84" x="3080.5" y="1475.4043">Global Tables</text><text fill="#000000" font-family="Verdana" font-size="12" lengthAdjust="spacing" textLength="79" x="3080.5" y="1489.373">DAX Enabled</text></g><g id="elem_GMN152"><path d="M2863.5,1438.2969 L2863.5,1504.1719 L2966.5,1504.1719 L2966.5,1448.2969 L2956.5,1438.2969 L2863.5,1438.2969 " fill="#F5F5F5" style="stroke:#999999;stroke-width:0.5;"/><path d="M2956.5,1438.2969 L2956.5,1448.2969 L2966.5,1448.2969 L2956.5,1438.2969 " fill="#F5F5F5" style="stroke:#999999;stroke-width:1.0;"/><text fill="#000000" font-family="Verdana" font-size="12" lengthAdjust="spacing" textLength="26" x="2869.5" y="1454.4355">v7.0</text><text fill="#000000" font-family="Verdana" font-size="12" lengthAdjust="spacing" textLength="63" x="2869.5" y="1468.4043">r6g.xlarge</text><text fill="#000000" font-family="Verdana" font-size="12" lengthAdjust="spacing" textLength="50" x="2869.5" y="1482.373">Multi-AZ</text><text fill="#000000" font-family="Verdana" font-size="12" lengthAdjust="spacing" textLength="82" x="2869.5" y="1496.3418">Cluster Mode</text></g><g id="elem_GMN155"><path d="M2662,1445.2969 L2662,1497.2031 L2756,1497.2031 L2756,1455.2969 L2746,1445.2969 L2662,1445.2969 " fill="#F5F5F5" style="stroke:#999999;stroke-width:0.5;"/><path d="M2746,1445.2969 L2746,1455.2969 L2756,1455.2969 L2746,1445.2969 " fill="#F5F5F5" style="stroke:#999999;stroke-width:1.0;"/><text fill="#000000" font-family="Verdana" font-size="12" lengthAdjust="spacing" textLength="73" x="2668" y="1461.4355">Standard/IA</text><text fill="#000000" font-family="Verdana" font-size="12" lengthAdjust="spacing" textLength="66" x="2668" y="1475.4043">Versioning</text><text fill="#000000" font-family="Verdana" font-size="12" lengthAdjust="spacing" textLength="69" x="2668" y="1489.373">Replication</text></g><g id="elem_GMN146"><path d="M2314,1438.2969 L2314,1504.1719 L2416,1504.1719 L2416,1448.2969 L2406,1438.2969 L2314,1438.2969 " fill="#F5F5F5" style="stroke:#999999;stroke-width:0.5;"/><path d="M2406,1438.2969 L2406,1448.2969 L2416,1448.2969 L2406,1438.2969 " fill="#F5F5F5" style="stroke:#999999;stroke-width:1.0;"/><text fill="#000000" font-family="Verdana" font-size="12" lengthAdjust="spacing" textLength="26" x="2320" y="1454.4355">v8.0</text><text fill="#000000" font-family="Verdana" font-size="12" lengthAdjust="spacing" textLength="50" x="2320" y="1468.4043">Multi-AZ</text><text fill="#000000" font-family="Verdana" font-size="12" lengthAdjust="spacing" textLength="81" x="2320" y="1482.373">6 TB Storage</text><text fill="#000000" font-family="Verdana" font-size="12" lengthAdjust="spacing" textLength="63" x="2320" y="1496.3418">100K IOPS</text></g><g id="elem_GMN159"><path d="M3335.5,1452.2969 L3335.5,1490.2344 L3466.5,1490.2344 L3466.5,1462.2969 L3456.5,1452.2969 L3335.5,1452.2969 " fill="#F5F5F5" style="stroke:#999999;stroke-width:0.5;"/><path d="M3456.5,1452.2969 L3456.5,1462.2969 L3466.5,1462.2969 L3456.5,1452.2969 " fill="#F5F5F5" style="stroke:#999999;stroke-width:1.0;"/><text fill="#000000" font-family="Verdana" font-size="12" lengthAdjust="spacing" textLength="78" x="3341.5" y="1468.4355">FIFO Queues</text><text fill="#000000" font-family="Verdana" font-size="12" lengthAdjust="spacing" textLength="110" x="3341.5" y="1482.4043">Message Filtering</text></g><g id="elem_GMN162"><path d="M3348.5,1632.2969 L3348.5,1670.2344 L3447.5,1670.2344 L3447.5,1642.2969 L3437.5,1632.2969 L3348.5,1632.2969 " fill="#F5F5F5" style="stroke:#999999;stroke-width:0.5;"/><path d="M3437.5,1632.2969 L3437.5,1642.2969 L3447.5,1642.2969 L3437.5,1632.2969 " fill="#F5F5F5" style="stroke:#999999;stroke-width:1.0;"/><text fill="#000000" font-family="Verdana" font-size="12" lengthAdjust="spacing" textLength="78" x="3354.5" y="1648.4355">FIFO Queues</text><text fill="#000000" font-family="Verdana" font-size="12" lengthAdjust="spacing" textLength="78" x="3354.5" y="1662.4043">DLQ Support</text></g><!--entity Security Layer--><g id="elem_Security Layer"><path d="M3421.5,93.7969 L3536.5,93.7969 A3.75,3.75 0 0 1 3539,96.2969 L3546,113.7656 L3560.5,113.7656 A2.5,2.5 0 0 1 3563,116.2656 L3563,128.2656 A2.5,2.5 0 0 1 3560.5,130.7656 L3421.5,130.7656 A2.5,2.5 0 0 1 3419,128.2656 L3419,96.2969 A2.5,2.5 0 0 1 3421.5,93.7969 " fill="#F5F5F5" style="stroke:#666666;stroke-width:0.5;"/><line style="stroke:#666666;stroke-width:0.5;" x1="3419" x2="3546" y1="113.7656" y2="113.7656"/><text fill="#000000" font-family="Verdana" font-size="12" font-weight="bold" lengthAdjust="spacing" textLength="102" x="3429" y="107.9355">Security Layer</text></g><!--entity Integration Layer--><g id="elem_Integration Layer"><path d="M3600.5,93.7969 L3737.5,93.7969 A3.75,3.75 0 0 1 3740,96.2969 L3747,113.7656 L3761.5,113.7656 A2.5,2.5 0 0 1 3764,116.2656 L3764,128.2656 A2.5,2.5 0 0 1 3761.5,130.7656 L3600.5,130.7656 A2.5,2.5 0 0 1 3598,128.2656 L3598,96.2969 A2.5,2.5 0 0 1 3600.5,93.7969 " fill="#F5F5F5" style="stroke:#666666;stroke-width:0.5;"/><line style="stroke:#666666;stroke-width:0.5;" x1="3598" x2="3747" y1="113.7656" y2="113.7656"/><text fill="#000000" font-family="Verdana" font-size="12" font-weight="bold" lengthAdjust="spacing" textLength="124" x="3608" y="107.9355">Integration Layer</text></g><!--entity cognito--><g id="elem_cognito"><ellipse cx="3649" cy="1182.7969" fill="#F1F1F1" rx="8" ry="8" style="stroke:#181818;stroke-width:0.5;"/><path d="M3649,1190.7969 L3649,1217.7969 M3636,1198.7969 L3662,1198.7969 M3649,1217.7969 L3636,1232.7969 M3649,1217.7969 L3662,1232.7969 " fill="none" style="stroke:#181818;stroke-width:0.5;"/><text fill="#000000" font-family="Verdana" font-size="12" lengthAdjust="spacing" textLength="47" x="3625.5" y="1245.4355">cognito</text></g><!--entity eks--><g id="elem_eks"><ellipse cx="3577" cy="1182.7969" fill="#F1F1F1" rx="8" ry="8" style="stroke:#181818;stroke-width:0.5;"/><path d="M3577,1190.7969 L3577,1217.7969 M3564,1198.7969 L3590,1198.7969 M3577,1217.7969 L3564,1232.7969 M3577,1217.7969 L3590,1232.7969 " fill="none" style="stroke:#181818;stroke-width:0.5;"/><text fill="#000000" font-family="Verdana" font-size="12" lengthAdjust="spacing" textLength="22" x="3566" y="1245.4355">eks</text></g><g id="elem_GMN167"><path d="M3622,1445.2969 L3622,1497.2031 L3688,1497.2031 L3688,1455.2969 L3678,1445.2969 L3622,1445.2969 " fill="#F5F5F5" style="stroke:#999999;stroke-width:0.5;"/><path d="M3678,1445.2969 L3678,1455.2969 L3688,1455.2969 L3678,1445.2969 " fill="#F5F5F5" style="stroke:#999999;stroke-width:1.0;"/><text fill="#000000" font-family="Verdana" font-size="12" lengthAdjust="spacing" textLength="45" x="3628" y="1461.4355">Metrics</text><text fill="#000000" font-family="Verdana" font-size="12" lengthAdjust="spacing" textLength="29" x="3628" y="1475.4043">Logs</text><text fill="#000000" font-family="Verdana" font-size="12" lengthAdjust="spacing" textLength="42" x="3628" y="1489.373">Alarms</text></g><!--link users to GMN5--><g id="link_users_GMN5"><path d="M3013.5,149.6269 C3013.5,169.6069 3013.5,193.9969 3013.5,213.2769 " fill="none" id="users-GMN5" style="stroke:#666666;stroke-width:1.0;stroke-dasharray:7.0,7.0;"/></g><!--link GMN5 to GMN9--><g id="link_GMN5_GMN9"><path d="M3108.08,260.2969 C3140.08,260.2969 3180.85,260.2969 3214.77,260.2969 " fill="none" id="GMN5-GMN9" style="stroke:#666666;stroke-width:1.0;stroke-dasharray:7.0,7.0;"/></g><!--link alb to GMN24--><g id="link_alb_GMN24"><path d="M2971.2743,1019.2969 C2973.1226,1019.2969 2975.2471,1019.2969 2977.6266,1019.2969 C2987.1444,1019.2969 3000.7413,1019.2969 3017.0575,1019.2969 C3049.69,1019.2969 3093.2,1019.2969 3136.71,1019.2969 C3223.73,1019.2969 3310.75,1019.2969 3310.75,1019.2969 C3310.75,1019.2969 3310.75,1143.6169 3310.75,1192.1869 " fill="none" id="alb-GMN24" style="stroke:#666666;stroke-width:1.0;stroke-dasharray:7.0,7.0;"/></g><!--link GMN24 to GMN28--><g id="link_GMN24_GMN28"><path d="M3274.32,1201.2969 C3240.4,1201.2969 3201.42,1201.2969 3167.52,1201.2969 " fill="none" id="GMN24-GMN28" style="stroke:#666666;stroke-width:1.0;stroke-dasharray:7.0,7.0;"/></g><!--link GMN28 to GMN32--><g id="link_GMN28_GMN32"><path d="M2998.23,1201.2969 C2963.55,1201.2969 2923.97,1201.2969 2891.21,1201.2969 " fill="none" id="GMN28-GMN32" style="stroke:#666666;stroke-width:1.0;stroke-dasharray:7.0,7.0;"/></g><!--link users to web--><g id="link_users_web"><path d="M2995.5,149.6269 C2995.5,154.5831 2995.5,159.8108 2995.5,165.1646 C2995.5,167.8414 2995.5,170.5498 2995.5,173.2716 " fill="none" id="users-to-web" style="stroke:#666666;stroke-width:1.0;"/><polygon fill="#666666" points="2995.5,173.2716,2999.5,164.2716,2995.5,168.2716,2991.5,164.2716,2995.5,173.2716" style="stroke:#666666;stroke-width:1.0;"/></g><!--link users to mobile--><g id="link_users_mobile"><path d="M3027.3,140.2969 C3071.41,140.2969 3180,140.2969 3180,140.2969 C3180,140.2969 3180,146.3156 3180,155.4847 C3180,160.0692 3180,165.4413 3180,171.2425 C3180,174.143 3180,177.1508 3180,180.2211 " fill="none" id="users-to-mobile" style="stroke:#666666;stroke-width:1.0;"/><polygon fill="#666666" points="3180,180.2211,3184,171.2211,3180,175.2211,3176,171.2211,3180,180.2211" style="stroke:#666666;stroke-width:1.0;"/></g><!--link web to cdn--><g id="link_web_cdn"><path d="M2964.67,304.078 C2964.67,304.4579 2964.67,304.8388 2964.67,305.2208 C2964.67,306.7489 2964.67,308.2944 2964.67,309.8555 C2964.67,312.9779 2964.67,316.1632 2964.67,319.3989 C2964.67,332.3416 2964.67,346.0903 2964.67,359.8381 C2964.67,373.5859 2964.67,387.3329 2964.67,400.2722 C2964.67,401.8896 2964.67,403.4944 2964.67,405.085 C2964.67,405.4827 2964.67,405.8794 2964.67,406.2753 C2964.67,406.4732 2964.67,406.6709 2964.67,406.8684 " fill="none" id="web-to-cdn" style="stroke:#666666;stroke-width:1.0;"/><polygon fill="#666666" points="2964.67,406.8684,2968.67,397.8684,2964.67,401.8684,2960.67,397.8684,2964.67,406.8684" style="stroke:#666666;stroke-width:1.0;"/></g><!--link mobile to cdn--><g id="link_mobile_cdn"><path d="M3179.25,296.7432 C3179.25,297.1893 3179.25,297.636 3179.25,298.0833 C3179.25,298.9778 3179.25,299.8744 3179.25,300.7723 C3179.25,302.5681 3179.25,304.369 3179.25,306.1681 C3179.25,334.9544 3179.25,363.2969 3179.25,363.2969 C3179.25,363.2969 2992.5,363.2969 2992.5,363.2969 C2992.5,363.2969 2992.5,370.1719 2992.5,380.4844 C2992.5,385.6406 2992.5,391.6563 2992.5,398.1016 C2992.5,399.7129 2992.5,401.3511 2992.5,403.0094 C2992.5,403.8386 2992.5,404.6728 2992.5,405.5112 C2992.5,405.9304 2992.5,406.3506 2992.5,406.7718 " fill="none" id="mobile-to-cdn" style="stroke:#666666;stroke-width:1.0;"/><polygon fill="#666666" points="2992.5,406.7718,2996.5,397.7718,2992.5,401.7718,2988.5,397.7718,2992.5,406.7718" style="stroke:#666666;stroke-width:1.0;"/></g><!--link cdn to waf--><g id="link_cdn_waf"><path d="M2963,523.4066 C2963,524.5175 2963,525.637 2963,526.7641 C2963,529.0184 2963,531.3031 2963,533.6096 C2963,538.2226 2963,542.9227 2963,547.6406 C2963,552.3586 2963,557.0944 2963,561.7789 C2963,562.0717 2963,562.3643 2963,562.6566 C2963,562.8028 2963,562.9489 2963,563.095 " fill="none" id="cdn-to-waf" style="stroke:#666666;stroke-width:1.0;"/><polygon fill="#666666" points="2963,563.095,2967,554.095,2963,558.095,2959,554.095,2963,563.095" style="stroke:#666666;stroke-width:1.0;"/></g><!--link cdn to waf--><g id="link_cdn_waf"><path d="M2956.9907,487.2969 C2956.9755,487.2969 2956.9603,487.2969 2956.9452,487.2969 C2956.8243,487.2969 2956.7075,487.2969 2956.5953,487.2969 C2955.6981,487.2969 2955.1,487.2969 2955.1,487.2969 C2955.1,487.2969 2955.1,522.7969 2955.1,558.2969 C2955.1,559.4063 2955.1,560.5156 2955.1,561.6239 C2955.1,562.1781 2955.1,562.7319 2955.1,563.2854 " fill="none" id="cdn-to-waf-1" style="stroke:#666666;stroke-width:1.0;"/><polygon fill="#666666" points="2955.1,563.2854,2959.1,554.2854,2955.1,558.2854,2951.1,554.2854,2955.1,563.2854" style="stroke:#666666;stroke-width:1.0;"/><text fill="#666666" font-family="Verdana" font-size="12" lengthAdjust="spacing" textLength="68" x="2886.1" y="533.3155">L7 Filtering</text><text fill="#666666" font-family="Verdana" font-size="12" lengthAdjust="spacing" textLength="51" x="2894.6" y="547.2843">10K RPS</text></g><!--link waf to apigw--><g id="link_waf_apigw"><path d="M2963,679.6475 C2963,679.9168 2963,680.1866 2963,680.457 C2963,689.1073 2963,698.2594 2963,707.4094 C2963,709.6969 2963,711.9842 2963,714.2636 C2963,715.4033 2963,716.541 2963,717.6757 C2963,717.9594 2963,718.2429 2963,718.5262 C2963,718.6678 2963,718.8094 2963,718.9509 " fill="none" id="waf-to-apigw" style="stroke:#666666;stroke-width:1.0;"/><polygon fill="#666666" points="2963,718.9509,2967,709.9509,2963,713.9509,2959,709.9509,2963,718.9509" style="stroke:#666666;stroke-width:1.0;"/></g><!--link waf to apigw--><g id="link_waf_apigw"><path d="M2965.33,679.515 C2965.33,679.8018 2965.33,680.0892 2965.33,680.3771 C2965.33,680.953 2965.33,681.5311 2965.33,682.1114 C2965.33,683.2718 2965.33,684.4406 2965.33,685.6165 C2965.33,687.9683 2965.33,690.3486 2965.33,692.748 C2965.33,697.5469 2965.33,702.4219 2965.33,707.2969 C2965.33,709.7344 2965.33,712.1719 2965.33,714.5999 C2965.33,715.8138 2965.33,717.0255 2965.33,718.2335 C2965.33,718.5355 2965.33,718.8373 2965.33,719.1388 " fill="none" id="waf-to-apigw-1" style="stroke:#666666;stroke-width:1.0;"/><polygon fill="#666666" points="2965.33,719.1388,2969.33,710.1388,2965.33,714.1388,2961.33,710.1388,2965.33,719.1388" style="stroke:#666666;stroke-width:1.0;"/><text fill="#666666" font-family="Verdana" font-size="12" lengthAdjust="spacing" textLength="105" x="2859.33" y="690.4355">REST/WebSocket</text><text fill="#666666" font-family="Verdana" font-size="12" lengthAdjust="spacing" textLength="98" x="2862.83" y="704.4043">Custom Domain</text></g><!--link apigw to auth--><g id="link_apigw_auth"><path d="M2954.1752,785.2969 C2953.2881,785.2969 2952.3366,785.2969 2951.3217,785.2969 C2949.292,785.2969 2947.0089,785.2969 2944.4813,785.2969 C2934.371,785.2969 2920.3489,785.2969 2902.9814,785.2969 C2868.2463,785.2969 2820.1298,785.2969 2763.1641,785.2969 C2649.2325,785.2969 2499.9038,785.2969 2351.435,785.2969 C2054.4975,785.2969 1761,785.2969 1761,785.2969 C1761,785.2969 1761,1471.2969 1761,1471.2969 C1761,1471.2969 1756.6875,1471.2969 1751.9713,1471.2969 C1750.7922,1471.2969 1749.5879,1471.2969 1748.4194,1471.2969 C1748.3464,1471.2969 1748.2735,1471.2969 1748.2008,1471.2969 C1748.1644,1471.2969 1748.1281,1471.2969 1748.0918,1471.2969 " fill="none" id="apigw-to-auth" style="stroke:#666666;stroke-width:1.0;"/><polygon fill="#666666" points="1748.0918,1471.2969,1757.0918,1475.2969,1753.0918,1471.2969,1757.0918,1467.2969,1748.0918,1471.2969" style="stroke:#666666;stroke-width:1.0;"/></g><!--link apigw to alb--><g id="link_apigw_alb"><path d="M2963.33,835.8612 C2963.33,836.5748 2963.33,837.2931 2963.33,838.0161 C2963.33,843.7995 2963.33,849.8759 2963.33,856.1477 C2963.33,868.6911 2963.33,882.0156 2963.33,895.3394 C2963.33,908.6631 2963.33,921.9861 2963.33,934.5264 C2963.33,936.0939 2963.33,937.6493 2963.33,939.1908 " fill="none" id="apigw-to-alb" style="stroke:#666666;stroke-width:1.0;"/><polygon fill="#666666" points="2963.33,939.1908,2967.33,930.1908,2963.33,934.1908,2959.33,930.1908,2963.33,939.1908" style="stroke:#666666;stroke-width:1.0;"/></g><!--link apigw to alb--><g id="link_apigw_alb"><path d="M2978.75,835.9914 C2978.75,836.3564 2978.75,836.7227 2978.75,837.0903 C2978.75,842.9717 2978.75,849.1738 2978.75,855.5898 C2978.75,868.4219 2978.75,882.1094 2978.75,895.7969 C2978.75,950.5469 2978.75,1005.2969 2978.75,1005.2969 C2978.75,1005.2969 2975.735,1005.2969 2972.3438,1005.2969 C2971.9198,1005.2969 2971.4901,1005.2969 2971.0595,1005.2969 " fill="none" id="apigw-to-alb-1" style="stroke:#666666;stroke-width:1.0;"/><polygon fill="#666666" points="2971.0595,1005.2969,2980.0595,1009.2969,2976.0595,1005.2969,2980.0595,1001.2969,2971.0595,1005.2969" style="stroke:#666666;stroke-width:1.0;"/><text fill="#666666" font-family="Verdana" font-size="12" lengthAdjust="spacing" textLength="73" x="2891.75" y="878.6855">Internal TLS</text><text fill="#666666" font-family="Verdana" font-size="12" lengthAdjust="spacing" textLength="99" x="2878.75" y="892.6543">Security Groups</text></g><!--link alb to account--><g id="link_alb_account"><path d="M2971.4448,1006.2969 C2971.6454,1006.2969 2971.8492,1006.2969 2972.0563,1006.2969 C2972.4705,1006.2969 2972.8976,1006.2969 2973.3375,1006.2969 C2974.2173,1006.2969 2975.1479,1006.2969 2976.1274,1006.2969 C2983.9635,1006.2969 2994.9254,1006.2969 3007.9602,1006.2969 C3034.0297,1006.2969 3068.3906,1006.2969 3102.6188,1006.2969 C3171.075,1006.2969 3239,1006.2969 3239,1006.2969 C3239,1006.2969 3239,1054.3944 3239,1103.9944 C3239,1116.3944 3239,1128.8883 3239,1140.748 C3239,1143.713 3239,1146.6383 3239,1149.5126 C3239,1150.2312 3239,1150.9466 3239,1151.6586 " fill="none" id="alb-to-account" style="stroke:#666666;stroke-width:1.0;"/><polygon fill="#666666" points="3239,1151.6586,3243,1142.6586,3239,1146.6586,3235,1142.6586,3239,1151.6586" style="stroke:#666666;stroke-width:1.0;"/></g><!--link alb to payment--><g id="link_alb_payment"><path d="M2963.33,1055.6787 C2963.33,1056.0193 2963.33,1056.3609 2963.33,1056.7035 C2963.33,1057.3889 2963.33,1058.0783 2963.33,1058.7716 C2963.33,1060.1584 2963.33,1061.5608 2963.33,1062.9775 C2963.33,1065.8109 2963.33,1068.7015 2963.33,1071.6378 C2963.33,1083.383 2963.33,1095.8597 2963.33,1108.3356 C2963.33,1120.8116 2963.33,1133.2868 2963.33,1145.0292 C2963.33,1146.497 2963.33,1147.9533 2963.33,1149.3968 C2963.33,1150.1186 2963.33,1150.8371 2963.33,1151.5522 C2963.33,1151.731 2963.33,1151.9095 2963.33,1152.0879 " fill="none" id="alb-to-payment" style="stroke:#666666;stroke-width:1.0;"/><polygon fill="#666666" points="2963.33,1152.0879,2967.33,1143.0879,2963.33,1147.0879,2959.33,1143.0879,2963.33,1152.0879" style="stroke:#666666;stroke-width:1.0;"/></g><!--link alb to notification--><g id="link_alb_notification"><path d="M2948.2,1055.4452 C2948.2,1055.8279 2948.2,1056.2106 2948.2,1056.593 C2948.2,1057.3579 2948.2,1058.122 2948.2,1058.8846 C2948.2,1060.4099 2948.2,1061.9292 2948.2,1063.4365 C2948.2,1066.4512 2948.2,1069.418 2948.2,1072.2891 C2948.2,1078.0313 2948.2,1083.3906 2948.2,1087.9844 C2948.2,1097.1719 2948.2,1103.2969 2948.2,1103.2969 C2948.2,1103.2969 2720,1103.2969 2720,1103.2969 C2720,1103.2969 2720,1109.4288 2720,1118.7703 C2720,1123.4411 2720,1128.9143 2720,1134.8246 C2720,1137.7798 2720,1140.8443 2720,1143.9724 C2720,1145.5364 2720,1147.1164 2720,1148.7065 C2720,1149.5016 2720,1150.2992 2720,1151.0987 C2720,1151.2986 2720,1151.4985 2720,1151.6986 " fill="none" id="alb-to-notification" style="stroke:#666666;stroke-width:1.0;"/><polygon fill="#666666" points="2720,1151.6986,2724,1142.6986,2720,1146.6986,2716,1142.6986,2720,1151.6986" style="stroke:#666666;stroke-width:1.0;"/></g><!--link account to db--><g id="link_account_db"><path d="M3230.9874,1211.2969 C3230.9585,1211.2969 3230.9296,1211.2969 3230.9007,1211.2969 C3230.8429,1211.2969 3230.7851,1211.2969 3230.7273,1211.2969 C3230.6117,1211.2969 3230.4961,1211.2969 3230.3806,1211.2969 C3230.1497,1211.2969 3229.9192,1211.2969 3229.69,1211.2969 C3226.0225,1211.2969 3222.67,1211.2969 3222.67,1211.2969 C3222.67,1211.2969 3222.67,1237.2969 3222.67,1237.2969 C3222.67,1237.2969 2567,1237.2969 2567,1237.2969 C2567,1237.2969 2567,1444.7069 2567,1444.7069 " fill="none" id="account-to-db" style="stroke:#666666;stroke-width:1.0;"/><polygon fill="#666666" points="2567,1449.7069,2571,1440.7069,2567,1444.7069,2563,1440.7069,2567,1449.7069" style="stroke:#666666;stroke-width:1.0;"/></g><!--link account to redis--><g id="link_account_redis"><path d="M3239,1254.7943 C3239,1255.2586 3239,1255.7258 3239,1256.1959 C3239,1258.0764 3239,1260.0032 3239,1261.9736 C3239,1265.9146 3239,1270.0303 3239,1274.3006 C3239,1308.4631 3239,1352.5169 3239,1396.0719 C3239,1483.1819 3239,1568.2969 3239,1568.2969 C3239,1568.2969 2828,1568.2969 2828,1568.2969 C2828,1568.2969 2828,1562.7894 2828,1554.3991 C2828,1550.2039 2828,1545.288 2828,1539.9796 C2828,1537.3253 2828,1534.5729 2828,1531.7634 C2828,1531.061 2828,1530.3551 2828,1529.6462 C2828,1529.2917 2828,1528.9366 2828,1528.5807 " fill="none" id="account-to-redis" style="stroke:#666666;stroke-width:1.0;"/><polygon fill="#666666" points="2828,1528.5807,2824,1537.5807,2828,1533.5807,2832,1537.5807,2828,1528.5807" style="stroke:#666666;stroke-width:1.0;"/></g><!--link payment to dynamo--><g id="link_payment_dynamo"><path d="M2994,1255.4023 C2994,1255.7948 2994,1256.1892 2994,1256.5854 C2994,1258.1703 2994,1259.785 2994,1261.4275 C2994,1264.7124 2994,1268.1084 2994,1271.5996 C2994,1278.582 2994,1285.9453 2994,1293.5625 C2994,1308.7969 2994,1325.0469 2994,1341.2969 C2994,1406.2969 2994,1471.2969 2994,1471.2969 C2994,1471.2969 3003.8875,1471.2969 3014.3925,1471.2969 C3019.645,1471.2969 3025.0519,1471.2969 3029.4544,1471.2969 C3029.7295,1471.2969 3030.0008,1471.2969 3030.2678,1471.2969 C3030.4013,1471.2969 3030.5338,1471.2969 3030.6651,1471.2969 C3030.7308,1471.2969 3030.7962,1471.2969 3030.8614,1471.2969 " fill="none" id="payment-to-dynamo" style="stroke:#666666;stroke-width:1.0;"/><polygon fill="#666666" points="3030.8614,1471.2969,3021.8614,1467.2969,3025.8614,1471.2969,3021.8614,1475.2969,3030.8614,1471.2969" style="stroke:#666666;stroke-width:1.0;"/></g><!--link payment to redis--><g id="link_payment_redis"><path d="M2954.9594,1239.2969 C2954.6928,1239.2969 2954.4204,1239.2969 2954.1423,1239.2969 C2953.0299,1239.2969 2951.8269,1239.2969 2950.5415,1239.2969 C2947.9707,1239.2969 2945.0703,1239.2969 2941.9063,1239.2969 C2929.25,1239.2969 2912.375,1239.2969 2895.5,1239.2969 C2861.75,1239.2969 2828,1239.2969 2828,1239.2969 C2828,1239.2969 2828,1293.7294 2828,1349.8619 C2828,1356.8784 2828,1363.9216 2828,1370.8883 C2828,1374.3716 2828,1377.8358 2828,1381.2681 C2828,1381.6971 2828,1382.1257 2828,1382.5537 " fill="none" id="payment-to-redis" style="stroke:#666666;stroke-width:1.0;"/><polygon fill="#666666" points="2828,1382.5537,2832,1373.5537,2828,1377.5537,2824,1373.5537,2828,1382.5537" style="stroke:#666666;stroke-width:1.0;"/></g><!--link notification to s3--><g id="link_notification_s3"><path d="M2720,1254.7104 C2720,1255.0607 2720,1255.4125 2720,1255.7657 C2720,1256.4722 2720,1257.1844 2720,1257.9023 C2720,1259.338 2720,1260.7961 2720,1262.275 C2720,1265.2327 2720,1268.2735 2720,1271.3847 C2720,1277.6069 2720,1284.1104 2720,1290.7925 C2720,1304.1566 2720,1318.2353 2720,1332.2081 C2720,1346.1809 2720,1360.0479 2720,1372.9886 C2720,1376.2238 2720,1379.4011 2720,1382.5077 C2720,1384.061 2720,1385.5966 2720,1387.1129 C2720,1387.8711 2720,1388.6244 2720,1389.3728 C2720,1389.5598 2720,1389.7466 2720,1389.9331 " fill="none" id="notification-to-s3" style="stroke:#666666;stroke-width:1.0;"/><polygon fill="#666666" points="2720,1389.9331,2724,1380.9331,2720,1384.9331,2716,1380.9331,2720,1389.9331" style="stroke:#666666;stroke-width:1.0;"/></g><!--link notification to sns--><g id="link_notification_sns"><path d="M2915.7424,1236.2969 C2923.1646,1236.2969 2930.677,1236.2969 2938.2495,1236.2969 C2953.3944,1236.2969 2968.7797,1236.2969 2984.165,1236.2969 C3107.2475,1236.2969 3230.33,1236.2969 3230.33,1236.2969 C3230.33,1236.2969 3230.33,1471.2969 3230.33,1471.2969 C3230.33,1471.2969 3246.1525,1471.2969 3262.7175,1471.2969 C3271,1471.2969 3279.4681,1471.2969 3286.2369,1471.2969 C3287.9291,1471.2969 3289.515,1471.2969 3290.9654,1471.2969 C3291.1466,1471.2969 3291.3258,1471.2969 3291.5028,1471.2969 C3291.5913,1471.2969 3291.6792,1471.2969 3291.7666,1471.2969 " fill="none" id="notification-to-sns" style="stroke:#666666;stroke-width:1.0;"/><polygon fill="#666666" points="3291.7666,1471.2969,3282.7666,1467.2969,3286.7666,1471.2969,3282.7666,1475.2969,3291.7666,1471.2969" style="stroke:#666666;stroke-width:1.0;"/></g><!--link sns to sqs--><g id="link_sns_sqs"><path d="M3483,1514.9024 C3483,1515.7366 3483,1516.5903 3483,1517.4627 C3483,1531.4197 3483,1550.125 3483,1569.1181 C3483,1573.8664 3483,1578.6327 3483,1583.3472 C3483,1585.7045 3483,1588.0489 3483,1590.3716 C3483,1590.9523 3483,1591.5316 3483,1592.1094 " fill="none" id="sns-to-sqs" style="stroke:#666666;stroke-width:1.0;"/><polygon fill="#666666" points="3483,1592.1094,3487,1583.1094,3483,1587.1094,3479,1583.1094,3483,1592.1094" style="stroke:#666666;stroke-width:1.0;"/></g><!--link account to secrets--><g id="link_account_secrets"><path d="M3257.25,1254.7161 C3257.25,1255.4982 3257.25,1256.2827 3257.25,1257.0687 C3257.25,1258.6406 3257.25,1260.2188 3257.25,1261.7969 C3257.25,1287.0469 3257.25,1312.2969 3257.25,1312.2969 C3257.25,1312.2969 2051,1312.2969 2051,1312.2969 C2051,1312.2969 2051,1349.6019 2051,1388.0719 C2051,1392.8806 2051,1397.7076 2051,1402.4821 C2051,1403.079 2051,1403.675 2051,1404.27 C2051,1404.5675 2051,1404.8648 2051,1405.1619 " fill="none" id="account-to-secrets" style="stroke:#666666;stroke-width:1.0;stroke-dasharray:7.0,7.0;"/><polygon fill="#666666" points="2051,1405.1619,2055,1396.1619,2051,1400.1619,2047,1396.1619,2051,1405.1619" style="stroke:#666666;stroke-width:1.0;"/></g><!--link payment to kms--><g id="link_payment_kms"><path d="M2954.9946,1211.2969 C2954.6268,1211.2969 2954.2521,1211.2969 2953.8717,1211.2969 C2953.1108,1211.2969 2952.3274,1211.2969 2951.5318,1211.2969 C2949.9406,1211.2969 2948.3006,1211.2969 2946.695,1211.2969 C2940.2725,1211.2969 2934.4,1211.2969 2934.4,1211.2969 C2934.4,1211.2969 2934.4,1232.2969 2934.4,1232.2969 C2934.4,1232.2969 1995,1232.2969 1995,1232.2969 C1995,1232.2969 1995,1289.2794 1995,1347.5969 C1995,1362.1763 1995,1376.8391 1995,1390.7158 C1995,1397.6542 1995,1404.3961 1995,1410.8327 C1995,1411.235 1995,1411.6361 1995,1412.036 " fill="none" id="payment-to-kms" style="stroke:#666666;stroke-width:1.0;stroke-dasharray:7.0,7.0;"/><polygon fill="#666666" points="1995,1412.036,1999,1403.036,1995,1407.036,1991,1403.036,1995,1412.036" style="stroke:#666666;stroke-width:1.0;"/></g><!--link sqs to GMN63--><g id="link_sqs_GMN63"><path d="M3474.25,1591.2602 C3474.25,1590.1739 3474.25,1589.0747 3474.25,1587.9625 C3474.25,1583.5137 3474.25,1578.8582 3474.25,1574.005 C3474.25,1564.2986 3474.25,1553.8013 3474.25,1542.585 C3474.25,1520.1523 3474.25,1494.8438 3474.25,1467.2344 C3474.25,1356.7969 3474.25,1209.5469 3474.25,1062.2969 C3474.25,767.7969 3474.25,473.2969 3474.25,473.2969 C3474.25,473.2969 3284.47,473.2969 3169.94,473.2969 " fill="none" id="sqs-GMN63" style="stroke:#666666;stroke-width:1.0;stroke-dasharray:7.0,7.0;"/></g><!--link GMN63 to GMN66--><g id="link_GMN63_GMN66"><path d="M3085,499.4069 C3085,528.2069 3085,574.2669 3085,603.0969 " fill="none" id="GMN63-GMN66" style="stroke:#666666;stroke-width:1.0;stroke-dasharray:7.0,7.0;"/></g><!--link GMN66 to GMN69--><g id="link_GMN66_GMN69"><path d="M3067,655.4069 C3067,684.2069 3067,730.2669 3067,759.0969 " fill="none" id="GMN66-GMN69" style="stroke:#666666;stroke-width:1.0;stroke-dasharray:7.0,7.0;"/></g><!--link GMN69 to GMN73--><g id="link_GMN69_GMN73"><path d="M2998.23,799.2969 C2709.57,799.2969 1610.75,799.2969 1610.75,799.2969 C1610.75,799.2969 1610.75,1320.7069 1610.75,1444.9569 " fill="none" id="GMN69-GMN73" style="stroke:#666666;stroke-width:1.0;stroke-dasharray:7.0,7.0;"/></g><!--link GMN73 to GMN76--><g id="link_GMN73_GMN76"><path d="M1705.15,1449.2969 C1798.07,1449.2969 1995.74,1449.2969 2085.69,1449.2969 " fill="none" id="GMN73-GMN76" style="stroke:#666666;stroke-width:1.0;stroke-dasharray:7.0,7.0;"/></g><!--link GMN76 to GMN79--><g id="link_GMN76_GMN79"><path d="M2085.73,1461.2969 C2050.38,1461.2969 2000.95,1461.2969 1960.11,1461.2969 " fill="none" id="GMN76-GMN79" style="stroke:#666666;stroke-width:1.0;stroke-dasharray:7.0,7.0;"/></g><!--link GMN79 to GMN82--><g id="link_GMN79_GMN82"><path d="M1913.25,1452.1569 C1913.25,1364.4669 1913.25,1005.2969 1913.25,1005.2969 C1913.25,1005.2969 2602.35,1005.2969 2810.29,1005.2969 " fill="none" id="GMN79-GMN82" style="stroke:#666666;stroke-width:1.0;stroke-dasharray:7.0,7.0;"/></g><!--link GMN82 to GMN85--><g id="link_GMN82_GMN85"><path d="M2850.75,1031.4669 C2850.75,1081.3969 2850.75,1185.2969 2850.75,1185.2969 C2850.75,1185.2969 557.04,1185.2969 161.69,1185.2969 " fill="none" id="GMN82-GMN85" style="stroke:#666666;stroke-width:1.0;stroke-dasharray:7.0,7.0;"/></g><!--link GMN85 to GMN89--><g id="link_GMN85_GMN89"><path d="M161.79,1229.2969 C497.99,1229.2969 2198.79,1229.2969 2542.42,1229.2969 " fill="none" id="GMN85-GMN89" style="stroke:#666666;stroke-width:1.0;stroke-dasharray:7.0,7.0;"/></g><!--link GMN89 to GMN94--><g id="link_GMN89_GMN94"><path d="M2542.29,1228.2969 C2389.57,1228.2969 2001.5,1228.2969 2001.5,1228.2969 C2001.5,1228.2969 2001.5,1226.2869 2001.5,1223.6469 " fill="none" id="GMN89-GMN94" style="stroke:#666666;stroke-width:1.0;stroke-dasharray:7.0,7.0;"/></g><!--link GMN94 to GMN97--><g id="link_GMN94_GMN97"><path d="M2007.11,1211.2969 C2017.75,1211.2969 2029.88,1211.2969 2041.78,1211.2969 " fill="none" id="GMN94-GMN97" style="stroke:#666666;stroke-width:1.0;stroke-dasharray:7.0,7.0;"/></g><!--link GMN97 to GMN100--><g id="link_GMN97_GMN100"><path d="M2158.01,1211.2969 C2169.55,1211.2969 2181.71,1211.2969 2193.41,1211.2969 " fill="none" id="GMN97-GMN100" style="stroke:#666666;stroke-width:1.0;stroke-dasharray:7.0,7.0;"/></g><!--link GMN100 to GMN103--><g id="link_GMN100_GMN103"><path d="M2320.58,1211.2969 C2332.13,1211.2969 2344.08,1211.2969 2355.31,1211.2969 " fill="none" id="GMN100-GMN103" style="stroke:#666666;stroke-width:1.0;stroke-dasharray:7.0,7.0;"/></g><!--link GMN103 to GMN107--><g id="link_GMN103_GMN107"><path d="M2385.75,1223.5769 C2385.75,1224.6269 2385.75,1225.2969 2385.75,1225.2969 C2385.75,1225.2969 1397,1225.2969 1397,1225.2969 C1397,1225.2969 1397,1224.6269 1397,1223.5769 " fill="none" id="GMN103-GMN107" style="stroke:#666666;stroke-width:1.0;stroke-dasharray:7.0,7.0;"/></g><!--link GMN107 to GMN110--><g id="link_GMN107_GMN110"><path d="M1430.11,1211.2969 C1440.75,1211.2969 1452.88,1211.2969 1464.78,1211.2969 " fill="none" id="GMN107-GMN110" style="stroke:#666666;stroke-width:1.0;stroke-dasharray:7.0,7.0;"/></g><!--link GMN110 to GMN113--><g id="link_GMN110_GMN113"><path d="M1581.01,1211.2969 C1592.55,1211.2969 1604.71,1211.2969 1616.41,1211.2969 " fill="none" id="GMN110-GMN113" style="stroke:#666666;stroke-width:1.0;stroke-dasharray:7.0,7.0;"/></g><!--link GMN113 to GMN116--><g id="link_GMN113_GMN116"><path d="M1743.58,1211.2969 C1755.13,1211.2969 1767.08,1211.2969 1778.31,1211.2969 " fill="none" id="GMN113-GMN116" style="stroke:#666666;stroke-width:1.0;stroke-dasharray:7.0,7.0;"/></g><!--link GMN116 to GMN120--><g id="link_GMN116_GMN120"><path d="M1795.25,1223.5869 C1795.25,1225.7369 1795.25,1227.2969 1795.25,1227.2969 C1795.25,1227.2969 852,1227.2969 852,1227.2969 C852,1227.2969 852,1225.7369 852,1223.5869 " fill="none" id="GMN116-GMN120" style="stroke:#666666;stroke-width:1.0;stroke-dasharray:7.0,7.0;"/></g><!--link GMN120 to GMN123--><g id="link_GMN120_GMN123"><path d="M908.71,1211.2969 C920.66,1211.2969 932.83,1211.2969 943.37,1211.2969 " fill="none" id="GMN120-GMN123" style="stroke:#666666;stroke-width:1.0;stroke-dasharray:7.0,7.0;"/></g><!--link GMN123 to GMN126--><g id="link_GMN123_GMN126"><path d="M1004.57,1211.2969 C1015.08,1211.2969 1027.26,1211.2969 1039.4,1211.2969 " fill="none" id="GMN123-GMN126" style="stroke:#666666;stroke-width:1.0;stroke-dasharray:7.0,7.0;"/></g><!--link GMN126 to GMN129--><g id="link_GMN126_GMN129"><path d="M1166.58,1211.2969 C1178.13,1211.2969 1190.08,1211.2969 1201.31,1211.2969 " fill="none" id="GMN126-GMN129" style="stroke:#666666;stroke-width:1.0;stroke-dasharray:7.0,7.0;"/></g><!--link GMN129 to GMN133--><g id="link_GMN129_GMN133"><path d="M1255,1223.4069 C1255,1225.1069 1255,1226.2969 1255,1226.2969 C1255,1226.2969 251,1226.2969 251,1226.2969 C251,1226.2969 251,1225.1069 251,1223.4069 " fill="none" id="GMN129-GMN133" style="stroke:#666666;stroke-width:1.0;stroke-dasharray:7.0,7.0;"/></g><!--link GMN133 to GMN136--><g id="link_GMN133_GMN136"><path d="M284.11,1211.2969 C294.75,1211.2969 306.88,1211.2969 318.78,1211.2969 " fill="none" id="GMN133-GMN136" style="stroke:#666666;stroke-width:1.0;stroke-dasharray:7.0,7.0;"/></g><!--link GMN136 to GMN139--><g id="link_GMN136_GMN139"><path d="M435.01,1211.2969 C446.55,1211.2969 458.71,1211.2969 470.41,1211.2969 " fill="none" id="GMN136-GMN139" style="stroke:#666666;stroke-width:1.0;stroke-dasharray:7.0,7.0;"/></g><!--link GMN139 to GMN142--><g id="link_GMN139_GMN142"><path d="M597.58,1211.2969 C609.13,1211.2969 621.08,1211.2969 632.31,1211.2969 " fill="none" id="GMN139-GMN142" style="stroke:#666666;stroke-width:1.0;stroke-dasharray:7.0,7.0;"/></g><!--link GMN142 to GMN146--><g id="link_GMN142_GMN146"><path d="M686,1223.3869 C686,1270.9169 686,1442.2969 686,1442.2969 C686,1442.2969 2032.45,1442.2969 2313.83,1442.2969 " fill="none" id="GMN142-GMN146" style="stroke:#666666;stroke-width:1.0;stroke-dasharray:7.0,7.0;"/></g><!--link GMN146 to GMN149--><g id="link_GMN146_GMN149"><path d="M2365,1504.5569 C2365,1520.5469 2365,1536.2969 2365,1536.2969 C2365,1536.2969 3127,1536.2969 3127,1536.2969 C3127,1536.2969 3127,1515.4469 3127,1497.3569 " fill="none" id="GMN146-GMN149" style="stroke:#666666;stroke-width:1.0;stroke-dasharray:7.0,7.0;"/></g><!--link GMN149 to GMN152--><g id="link_GMN149_GMN152"><path d="M3074.32,1485.2969 C3041.46,1485.2969 2999.35,1485.2969 2966.67,1485.2969 " fill="none" id="GMN149-GMN152" style="stroke:#666666;stroke-width:1.0;stroke-dasharray:7.0,7.0;"/></g><!--link GMN152 to GMN155--><g id="link_GMN152_GMN155"><path d="M2863.28,1458.2969 C2830.39,1458.2969 2788.13,1458.2969 2756.15,1458.2969 " fill="none" id="GMN152-GMN155" style="stroke:#666666;stroke-width:1.0;stroke-dasharray:7.0,7.0;"/></g><!--link GMN155 to GMN159--><g id="link_GMN155_GMN159"><path d="M2709,1497.4069 C2709,1535.0969 2709,1600.2969 2709,1600.2969 C2709,1600.2969 3342,1600.2969 3342,1600.2969 C3342,1600.2969 3342,1526.2169 3342,1490.3269 " fill="none" id="GMN155-GMN159" style="stroke:#666666;stroke-width:1.0;stroke-dasharray:7.0,7.0;"/></g><!--link GMN159 to GMN162--><g id="link_GMN159_GMN162"><path d="M3398,1490.5569 C3398,1525.2069 3398,1597.6269 3398,1632.1769 " fill="none" id="GMN159-GMN162" style="stroke:#666666;stroke-width:1.0;stroke-dasharray:7.0,7.0;"/></g><!--link GMN162 to GMN167--><g id="link_GMN162_GMN167"><path d="M3447.55,1641.2969 C3522.23,1641.2969 3655,1641.2969 3655,1641.2969 C3655,1641.2969 3655,1545.1769 3655,1497.4869 " fill="none" id="GMN162-GMN167" style="stroke:#666666;stroke-width:1.0;stroke-dasharray:7.0,7.0;"/></g><!--link users to cdn--><g id="link_users_cdn"><path d="M2997,149.6269 C2997,194.3369 2997,263.2969 2997,263.2969 C2997,263.2969 2965.33,263.2969 2965.33,263.2969 C2965.33,263.2969 2965.33,314.1694 2965.33,365.8369 C2965.33,378.7537 2965.33,391.7203 2965.33,403.9541 C2965.33,404.7187 2965.33,405.4805 2965.33,406.2392 " fill="none" id="users-to-cdn" style="stroke:#666666;stroke-width:1.0;"/><polygon fill="#666666" points="2965.33,406.2392,2969.33,397.2392,2965.33,401.2392,2961.33,397.2392,2965.33,406.2392" style="stroke:#666666;stroke-width:1.0;"/><text fill="#666666" font-family="Verdana" font-size="12" lengthAdjust="spacing" textLength="70" x="2894.33" y="278.6855">HTTPS/WSS</text><text fill="#666666" font-family="Verdana" font-size="12" lengthAdjust="spacing" textLength="45" x="2906.83" y="292.6543">TLS 1.3</text></g><!--link apigw to cognito--><g id="link_apigw_cognito"><path d="M2954.9374,786.2969 C2954.8975,786.2969 2954.8576,786.2969 2954.8177,786.2969 C2954.7378,786.2969 2954.6578,786.2969 2954.5775,786.2969 C2954.2565,786.2969 2953.9324,786.2969 2953.6066,786.2969 C2952.955,786.2969 2952.2963,786.2969 2951.64,786.2969 C2946.39,786.2969 2941.3,786.2969 2941.3,786.2969 C2941.3,786.2969 2941.3,895.2969 2941.3,895.2969 C2941.3,895.2969 3649,895.2969 3649,895.2969 C3649,895.2969 3649,1169.1169 3649,1169.1169 " fill="none" id="apigw-to-cognito" style="stroke:#666666;stroke-width:1.0;"/><polygon fill="#666666" points="3649,1174.1169,3653,1165.1169,3649,1169.1169,3645,1165.1169,3649,1174.1169" style="stroke:#666666;stroke-width:1.0;"/><text fill="#666666" font-family="Verdana" font-size="12" lengthAdjust="spacing" textLength="79" x="3286.74" y="878.4355">OAuth2/OIDC</text><text fill="#666666" font-family="Verdana" font-size="12" lengthAdjust="spacing" textLength="70" x="3291.24" y="892.4043">JWT Tokens</text></g><!--link alb to eks--><g id="link_alb_eks"><path d="M2971.3544,992.2969 C2971.9818,992.2969 2972.6415,992.2969 2973.3328,992.2969 C2974.7155,992.2969 2976.2247,992.2969 2977.8558,992.2969 C2981.1179,992.2969 2984.8675,992.2969 2989.067,992.2969 C3005.8651,992.2969 3029.8623,992.2969 3058.6591,992.2969 C3116.2525,992.2969 3193.0438,992.2969 3269.835,992.2969 C3423.4175,992.2969 3577,992.2969 3577,992.2969 C3577,992.2969 3577,1169.1469 3577,1169.1469 " fill="none" id="alb-to-eks" style="stroke:#666666;stroke-width:1.0;"/><polygon fill="#666666" points="3577,1174.1469,3581,1165.1469,3577,1169.1469,3573,1165.1469,3577,1174.1469" style="stroke:#666666;stroke-width:1.0;"/><text fill="#666666" font-family="Verdana" font-size="12" lengthAdjust="spacing" textLength="90" x="3260.83" y="975.4355">Target Groups</text><text fill="#666666" font-family="Verdana" font-size="12" lengthAdjust="spacing" textLength="90" x="3260.83" y="989.4043">Health Checks</text></g><!--link eks to aurora--><g id="link_eks_aurora"><path d="M3571,1248.5069 C3571,1296.8969 3571,1375.2969 3571,1375.2969 C3571,1375.2969 2451,1375.2969 2451,1375.2969 C2451,1375.2969 2451,1376.6595 2451,1379.0602 C2451,1379.6603 2451,1380.3253 2451,1381.0502 C2451,1381.4126 2451,1381.7899 2451,1382.1816 C2451,1382.3775 2451,1382.5769 2451,1382.7798 C2451,1382.8813 2451,1382.9836 2451,1383.0868 " fill="none" id="eks-to-aurora" style="stroke:#666666;stroke-width:1.0;"/><polygon fill="#666666" points="2451,1383.0868,2455,1374.0868,2451,1378.0868,2447,1374.0868,2451,1383.0868" style="stroke:#666666;stroke-width:1.0;"/><text fill="#666666" font-family="Verdana" font-size="12" lengthAdjust="spacing" textLength="102" x="2923.7" y="1358.4355">Connection Pool</text><text fill="#666666" font-family="Verdana" font-size="12" lengthAdjust="spacing" textLength="99" x="2925.2" y="1372.4043">Read/Write Split</text></g><!--link eks to dynamo--><g id="link_eks_dynamo"><path d="M3563.43,1242.2969 C3479.9,1242.2969 3039,1242.2969 3039,1242.2969 C3039,1242.2969 3039,1296.0244 3039,1351.4306 C3039,1358.3564 3039,1365.3084 3039,1372.185 C3039,1375.6233 3039,1379.0427 3039,1382.4306 C3039,1384.1245 3039,1385.8106 3039,1387.4871 C3039,1388.3254 3039,1389.1613 3039,1389.9947 " fill="none" id="eks-to-dynamo" style="stroke:#666666;stroke-width:1.0;"/><polygon fill="#666666" points="3039,1389.9947,3043,1380.9947,3039,1384.9947,3035,1380.9947,3039,1389.9947" style="stroke:#666666;stroke-width:1.0;"/><text fill="#666666" font-family="Verdana" font-size="12" lengthAdjust="spacing" textLength="78" x="3106.54" y="1254.4355">DAX Caching</text><text fill="#666666" font-family="Verdana" font-size="12" lengthAdjust="spacing" textLength="81" x="3105.04" y="1268.4043">Transactions</text></g><!--link eks to redis--><g id="link_eks_redis"><path d="M3563.38,1241.2969 C3463.34,1241.2969 2846.25,1241.2969 2846.25,1241.2969 C2846.25,1241.2969 2846.25,1298.7969 2846.25,1356.2969 C2846.25,1363.4844 2846.25,1370.6719 2846.25,1377.7471 C2846.25,1379.5159 2846.25,1381.2776 2846.25,1383.0307 " fill="none" id="eks-to-redis" style="stroke:#666666;stroke-width:1.0;"/><polygon fill="#666666" points="2846.25,1383.0307,2850.25,1374.0307,2846.25,1378.0307,2842.25,1374.0307,2846.25,1383.0307" style="stroke:#666666;stroke-width:1.0;"/><text fill="#666666" font-family="Verdana" font-size="12" lengthAdjust="spacing" textLength="87" x="2992.91" y="1253.4355">Session Store</text><text fill="#666666" font-family="Verdana" font-size="12" lengthAdjust="spacing" textLength="50" x="3011.41" y="1267.4043">Caching</text></g><!--link eks to s3--><g id="link_eks_s3"><path d="M3563.47,1238.2969 C3448.85,1238.2969 2645,1238.2969 2645,1238.2969 C2645,1238.2969 2645,1296.5469 2645,1354.7969 C2645,1362.0781 2645,1369.3594 2645,1376.5269 C2645,1380.1106 2645,1383.6659 2645,1387.1785 C2645,1388.0567 2645,1388.9322 2645,1389.8048 " fill="none" id="eks-to-s3" style="stroke:#666666;stroke-width:1.0;"/><polygon fill="#666666" points="2645,1389.8048,2649,1380.8048,2645,1384.8048,2641,1380.8048,2645,1389.8048" style="stroke:#666666;stroke-width:1.0;"/><text fill="#666666" font-family="Verdana" font-size="12" lengthAdjust="spacing" textLength="39" x="2916.46" y="1250.4355">S3 API</text><text fill="#666666" font-family="Verdana" font-size="12" lengthAdjust="spacing" textLength="84" x="2893.96" y="1264.4043">VPC Endpoint</text></g><!--link eks to sns--><g id="link_eks_sns"><path d="M3563.26,1243.2969 C3507.37,1243.2969 3300,1243.2969 3300,1243.2969 C3300,1243.2969 3300,1296.7894 3300,1351.9544 C3300,1365.7456 3300,1379.6414 3300,1392.832 C3300,1399.4273 3300,1405.8464 3300,1411.9879 " fill="none" id="eks-to-sns" style="stroke:#666666;stroke-width:1.0;"/><polygon fill="#666666" points="3300,1411.9879,3304,1402.9879,3300,1406.9879,3296,1402.9879,3300,1411.9879" style="stroke:#666666;stroke-width:1.0;"/><text fill="#666666" font-family="Verdana" font-size="12" lengthAdjust="spacing" textLength="52" x="3264.96" y="1255.4355">Pub/Sub</text><text fill="#666666" font-family="Verdana" font-size="12" lengthAdjust="spacing" textLength="26" x="3277.96" y="1269.4043">FIFO</text></g><!--link eks to sqs--><g id="link_eks_sqs"><path d="M3578.5,1248.4269 C3578.5,1354.5069 3578.5,1651.2969 3578.5,1651.2969 C3578.5,1651.2969 3556.81,1651.2969 3534.1038,1651.2969 C3522.7506,1651.2969 3511.1434,1651.2969 3501.8664,1651.2969 C3499.5471,1651.2969 3497.3735,1651.2969 3495.3859,1651.2969 C3494.3921,1651.2969 3493.4448,1651.2969 3492.5491,1651.2969 C3492.1012,1651.2969 3491.6662,1651.2969 3491.2447,1651.2969 " fill="none" id="eks-to-sqs" style="stroke:#666666;stroke-width:1.0;"/><polygon fill="#666666" points="3491.2447,1651.2969,3500.2447,1655.2969,3496.2447,1651.2969,3500.2447,1647.2969,3491.2447,1651.2969" style="stroke:#666666;stroke-width:1.0;"/><text fill="#666666" font-family="Verdana" font-size="12" lengthAdjust="spacing" textLength="41" x="3536.5" y="1480.4455">Queue</text><text fill="#666666" font-family="Verdana" font-size="12" lengthAdjust="spacing" textLength="24" x="3545" y="1494.4143">DLQ</text></g><!--link eks to secrets--><g id="link_eks_secrets"><path d="M3563.03,1234.2969 C3411.01,1234.2969 2069,1234.2969 2069,1234.2969 C2069,1234.2969 2069,1293.5469 2069,1352.7969 C2069,1367.6094 2069,1382.4219 2069,1396.3086 C2069,1398.0444 2069,1399.7658 2069,1401.4709 C2069,1402.3235 2069,1403.1719 2069,1404.0161 C2069,1404.4382 2069,1404.8592 2069,1405.2792 " fill="none" id="eks-to-secrets" style="stroke:#666666;stroke-width:1.0;stroke-dasharray:7.0,7.0;"/><polygon fill="#666666" points="2069,1405.2792,2073,1396.2792,2069,1400.2792,2065,1396.2792,2069,1405.2792" style="stroke:#666666;stroke-width:1.0;"/><text fill="#666666" font-family="Verdana" font-size="12" lengthAdjust="spacing" textLength="98" x="2589.74" y="1246.4355">Secret Rotation</text><text fill="#666666" font-family="Verdana" font-size="12" lengthAdjust="spacing" textLength="67" x="2605.24" y="1260.4043">API Access</text></g><!--link eks to kms--><g id="link_eks_kms"><path d="M3563.1,1233.2969 C3408.97,1233.2969 2024.5,1233.2969 2024.5,1233.2969 C2024.5,1233.2969 2024.5,1471.2969 2024.5,1471.2969 C2024.5,1471.2969 2018.4425,1471.2969 2011.8175,1471.2969 C2010.1613,1471.2969 2008.4695,1471.2969 2006.8281,1471.2969 C2006.0074,1471.2969 2005.1993,1471.2969 2004.4145,1471.2969 C2004.0221,1471.2969 2003.6355,1471.2969 2003.2561,1471.2969 C2003.2086,1471.2969 2003.1613,1471.2969 2003.1141,1471.2969 " fill="none" id="eks-to-kms" style="stroke:#666666;stroke-width:1.0;stroke-dasharray:7.0,7.0;"/><polygon fill="#666666" points="2003.1141,1471.2969,2012.1141,1475.2969,2008.1141,1471.2969,2012.1141,1467.2969,2003.1141,1471.2969" style="stroke:#666666;stroke-width:1.0;"/><text fill="#666666" font-family="Verdana" font-size="12" lengthAdjust="spacing" textLength="127" x="2661.42" y="1245.4355">Envelope Encryption</text></g><!--link eks to cw--><g id="link_eks_cw"><path d="M3587,1248.5469 C3587,1283.3719 3587,1336.7219 3587,1382.4806 C3587,1388.2005 3587,1393.8017 3587,1399.2333 C3587,1400.5912 3587,1401.9385 3587,1403.2744 C3587,1403.9424 3587,1404.6075 3587,1405.2696 " fill="none" id="eks-to-cw" style="stroke:#666666;stroke-width:1.0;stroke-dasharray:7.0,7.0;"/><polygon fill="#666666" points="3587,1405.2696,3591,1396.2696,3587,1400.2696,3583,1396.2696,3587,1405.2696" style="stroke:#666666;stroke-width:1.0;"/><text fill="#666666" font-family="Verdana" font-size="12" lengthAdjust="spacing" textLength="78" x="3508" y="1342.8455">Metrics/Logs</text><text fill="#666666" font-family="Verdana" font-size="12" lengthAdjust="spacing" textLength="42" x="3526" y="1356.8143">Alarms</text></g><!--SRC=[tLXjRzis4FxkNy6f7xe1ZHF7RTBcmm3PZbCtVekbDCDWOA0bnkOiaIf9EVM6_FSTIScMRSaecWu3PY26IHxlZiVdxXxcDVBKEY984gKecykQN5AMO85Z5556r3eXY0kru8M51MRXaw1A4OOUSIH9OItcZ0SBmMDoi2GNEEHFOEHW9IIFE8rKbpCrnB3J-Kn4Y1bsocKy-XT1ZVDQxNMrymaEbdXEqDyr19yMZEQ2foniyuWBzB2WYdWnNnAxp4L8X5rwTM4-jUTQGLl0uuGpmjGnVOUgckQpgoh42i-m92_Nz2KbwGzGWuNWJvcQtH3e6Htl8u5XN7rFZ3-OZrQbg88Bl7UlOJzRQd2C8wmUkOZH2V99i60qm14unXG6F0haYa0h3bGgIEqdG0NC8dSy_gCzweycwDNvTRjzsTYiT5pVpPS-jDvzQ5ribdf3__fculgzqJ2Nw3RQRy-wjLgE7gSTKNthFYN2oSw90mL7SEub4T91MA9K_p9BMvWu3sI6t2I9m7j5EJE2Jp1dTUYF2PsWyuMwGXC2Mb7ZVVthbFcGSbuWQABGEpqUFxZ8IvC4id3AHWbXxhY7lCwjKVIyRtV0PnG22gQDoTWEZraTWeChWixgb-TJrgAGkKhG0BcfMe2znqTT1d87CflFXGXTX_3Tn-jjW0hUj2EUXbq1buVQdQ7nA0ZPGQpSheqFVjnVqcUzmOeyuRKHmGcTF-tOzqYGGYrQbrddSqOLjnlXEFlhi5KG9T40IirS-mzoqixjYzuEFBEyZEMEzS8LLmO1P52Vun0G7c4MP8PmD3E2vciRpLiFjQDKggscVMr103cca4V4YWR4wihcjXlsh_eJNc7Kk7o3l4Je96jnhb1Jm-lzJGjDtC4Rz1QjskFxZORdCkDZl8x9dl4ac_lNZG-veezvi8iUiE92jHj37fBwdnBIx0qQ4ga-ULFsDdVWlCo1NQHte7BlNlAcbZjkAhZ0QB3sxlh6ft2s9z5PCnppJikkci6Un8I4LA8s3XRsM4AFzsIy9hGyi3It8hAvus6FAJ8NMS6nBjecuNX33_ayeO4jMPB9dTKx3ztfdzdg5mForxhgCgYqe4xMJ9L39oU_wZ9M6DaAKzErJGzrUcT59n_2dzq7wGr_vhVDO_Djnpez2qD8ZXfysO55zsQS0MupBbu_xCfoGQ_09HI7Dg0vNes0lOVYb1NQWPIUXaWVpa5OQl1b1n2qt5Yz_kkcaEIwzPok7Y-gd1M5_2RYCzqaEyCfwtIuXyQ2AtjnwEV6cT_wPSgiDMxTbrUeMTu_2hMugckaSBSU7EqAZHvSRwnnXHfdKpQ1EetwDAOWr3YxHPCn9DWDuIUpY0UwjPTRB2tnLRQlFH-QVKzE6JHO3zGIQ8eJ0ZYMqAM1ToeLRIsLzOdgYEzrYmeNTDz7OyuZy67GTQ55wavvVZhgTThb1ppIPYfij064i9LYRKJ7vvQiuTU4AmloKZE55bMX5hHaJcX40YJOYaGS2Fur2yGwAQZ-ZXQtbMdb_Qt23Lsb1CFHb7tqVOqHJz5WkGPCIMbApVPutzGSYxgroAfHFx-SigOf-EW6A6a2mOlVrS-_HbZC2OGqLVn40g_CeRAnTO29d7PEo9nA9In4uVAEz9cne2l0yvJrOkss5s36YeQU3qqAI5RCvf1Ope06WalRtQIpPwOWTy03TYKhUl1HcRtsV5IsgdENoGueGqtmtM14xeW-xuogpdf0E_x7PordESSFl6KsgEzxnqKDyJagKiM9gevx_fBZtYiQwQhy7rtj3p_hYuaZjXFbvMtrlWwDTf16Yfwulq_P1V9REI6SiiOPTDtUQEmLAkXH0bfXPSHEEYJ6B8JsRPc5ZsSHWIBQSN-3Pg47OQcDKWfRTPPBVHPnCQ_dPNbxhgpAem40kzIGrypuRuLo3_0LOX6Uzg13VmQk2ja4eD1SOTEfIcwgGA1tBwoIHbVOx_QweunImxcWiMdrNHh1eNQ9K2K3_nR5dVxTaPVvW6i-e-rLySi7h8A5vPPLZ6jW_Xi0jlfyhia8N5MSTsXu8Mp_GzED-1Ea7WasrQluPj3SzGevfk6VFdZGzFs-XnhrfbDy7cYH_kKsJXhIXaSwkmy7BQUfu6c11BO1CJn67Hv3mtOARud0yZgzfq3LfkpJWmztkIHCEhil3osPSnG4RW91oRcZ9HFEvkb1bb9B-ng_QaCrFX8S0NziBqYm1E6QbhAF79FQLuPNP0yhGoKrB75u-W0sW2y0G9MpsPHbAcpIoQTJomJ65vX9RDzcMs6RRrUQSnekPMe3P5QsRIi8YNDbNfF0BY51ncr8wp3XbAc2lnhU83LEPwTUEfioZRs2YYzcrM3HG37RMNZyM4_qJvHpLyjdWRo0Wyv6NdDMa2qXf5kPm5nxXiVJ8XoTsZy0]--></g></svg>